G04 #@! TF.GenerationSoftware,KiCad,Pcbnew,(5.1.2)-1*
G04 #@! TF.CreationDate,2019-08-22T02:28:44+10:00*
G04 #@! TF.ProjectId,NodeMCU ESP-32S Trinamic CNC,4e6f6465-4d43-4552-9045-53502d333253,rev?*
G04 #@! TF.SameCoordinates,Original*
G04 #@! TF.FileFunction,Soldermask,Bot*
G04 #@! TF.FilePolarity,Negative*
%FSLAX46Y46*%
G04 Gerber Fmt 4.6, Leading zero omitted, Abs format (unit mm)*
G04 Created by KiCad (PCBNEW (5.1.2)-1) date 2019-08-22 02:28:44*
%MOMM*%
%LPD*%
G04 APERTURE LIST*
%ADD10C,0.100000*%
G04 APERTURE END LIST*
D10*
G36*
X117988228Y-144481703D02*
G01*
X118143100Y-144545853D01*
X118282481Y-144638985D01*
X118401015Y-144757519D01*
X118494147Y-144896900D01*
X118558297Y-145051772D01*
X118591000Y-145216184D01*
X118591000Y-145383816D01*
X118558297Y-145548228D01*
X118494147Y-145703100D01*
X118401015Y-145842481D01*
X118282481Y-145961015D01*
X118143100Y-146054147D01*
X117988228Y-146118297D01*
X117823816Y-146151000D01*
X117656184Y-146151000D01*
X117491772Y-146118297D01*
X117336900Y-146054147D01*
X117197519Y-145961015D01*
X117078985Y-145842481D01*
X116985853Y-145703100D01*
X116921703Y-145548228D01*
X116889000Y-145383816D01*
X116889000Y-145216184D01*
X116921703Y-145051772D01*
X116985853Y-144896900D01*
X117078985Y-144757519D01*
X117197519Y-144638985D01*
X117336900Y-144545853D01*
X117491772Y-144481703D01*
X117656184Y-144449000D01*
X117823816Y-144449000D01*
X117988228Y-144481703D01*
X117988228Y-144481703D01*
G37*
G36*
X95128228Y-144481703D02*
G01*
X95283100Y-144545853D01*
X95422481Y-144638985D01*
X95541015Y-144757519D01*
X95634147Y-144896900D01*
X95698297Y-145051772D01*
X95731000Y-145216184D01*
X95731000Y-145383816D01*
X95698297Y-145548228D01*
X95634147Y-145703100D01*
X95541015Y-145842481D01*
X95422481Y-145961015D01*
X95283100Y-146054147D01*
X95128228Y-146118297D01*
X94963816Y-146151000D01*
X94796184Y-146151000D01*
X94631772Y-146118297D01*
X94476900Y-146054147D01*
X94337519Y-145961015D01*
X94218985Y-145842481D01*
X94125853Y-145703100D01*
X94061703Y-145548228D01*
X94029000Y-145383816D01*
X94029000Y-145216184D01*
X94061703Y-145051772D01*
X94125853Y-144896900D01*
X94218985Y-144757519D01*
X94337519Y-144638985D01*
X94476900Y-144545853D01*
X94631772Y-144481703D01*
X94796184Y-144449000D01*
X94963816Y-144449000D01*
X95128228Y-144481703D01*
X95128228Y-144481703D01*
G37*
G36*
X50327073Y-141941703D02*
G01*
X50471579Y-141970447D01*
X50772042Y-142094903D01*
X51042451Y-142275585D01*
X51272415Y-142505549D01*
X51453097Y-142775958D01*
X51577553Y-143076421D01*
X51641000Y-143395391D01*
X51641000Y-143720609D01*
X51577553Y-144039579D01*
X51453097Y-144340042D01*
X51272415Y-144610451D01*
X51042451Y-144840415D01*
X50772042Y-145021097D01*
X50471579Y-145145553D01*
X50365256Y-145166702D01*
X50152611Y-145209000D01*
X49827389Y-145209000D01*
X49614744Y-145166702D01*
X49508421Y-145145553D01*
X49207958Y-145021097D01*
X48937549Y-144840415D01*
X48707585Y-144610451D01*
X48526903Y-144340042D01*
X48402447Y-144039579D01*
X48339000Y-143720609D01*
X48339000Y-143395391D01*
X48402447Y-143076421D01*
X48526903Y-142775958D01*
X48707585Y-142505549D01*
X48937549Y-142275585D01*
X49207958Y-142094903D01*
X49508421Y-141970447D01*
X49652927Y-141941703D01*
X49827389Y-141907000D01*
X50152611Y-141907000D01*
X50327073Y-141941703D01*
X50327073Y-141941703D01*
G37*
G36*
X144375256Y-141891298D02*
G01*
X144481579Y-141912447D01*
X144782042Y-142036903D01*
X145052451Y-142217585D01*
X145282415Y-142447549D01*
X145463097Y-142717958D01*
X145587553Y-143018421D01*
X145651000Y-143337391D01*
X145651000Y-143662609D01*
X145587553Y-143981579D01*
X145463097Y-144282042D01*
X145282415Y-144552451D01*
X145052451Y-144782415D01*
X144782042Y-144963097D01*
X144481579Y-145087553D01*
X144375256Y-145108702D01*
X144162611Y-145151000D01*
X143837389Y-145151000D01*
X143624744Y-145108702D01*
X143518421Y-145087553D01*
X143217958Y-144963097D01*
X142947549Y-144782415D01*
X142717585Y-144552451D01*
X142536903Y-144282042D01*
X142412447Y-143981579D01*
X142349000Y-143662609D01*
X142349000Y-143337391D01*
X142412447Y-143018421D01*
X142536903Y-142717958D01*
X142717585Y-142447549D01*
X142947549Y-142217585D01*
X143217958Y-142036903D01*
X143518421Y-141912447D01*
X143624744Y-141891298D01*
X143837389Y-141849000D01*
X144162611Y-141849000D01*
X144375256Y-141891298D01*
X144375256Y-141891298D01*
G37*
G36*
X117988228Y-141941703D02*
G01*
X118143100Y-142005853D01*
X118282481Y-142098985D01*
X118401015Y-142217519D01*
X118494147Y-142356900D01*
X118558297Y-142511772D01*
X118591000Y-142676184D01*
X118591000Y-142843816D01*
X118558297Y-143008228D01*
X118494147Y-143163100D01*
X118401015Y-143302481D01*
X118282481Y-143421015D01*
X118143100Y-143514147D01*
X117988228Y-143578297D01*
X117823816Y-143611000D01*
X117656184Y-143611000D01*
X117491772Y-143578297D01*
X117336900Y-143514147D01*
X117197519Y-143421015D01*
X117078985Y-143302481D01*
X116985853Y-143163100D01*
X116921703Y-143008228D01*
X116889000Y-142843816D01*
X116889000Y-142676184D01*
X116921703Y-142511772D01*
X116985853Y-142356900D01*
X117078985Y-142217519D01*
X117197519Y-142098985D01*
X117336900Y-142005853D01*
X117491772Y-141941703D01*
X117656184Y-141909000D01*
X117823816Y-141909000D01*
X117988228Y-141941703D01*
X117988228Y-141941703D01*
G37*
G36*
X95128228Y-141941703D02*
G01*
X95283100Y-142005853D01*
X95422481Y-142098985D01*
X95541015Y-142217519D01*
X95634147Y-142356900D01*
X95698297Y-142511772D01*
X95731000Y-142676184D01*
X95731000Y-142843816D01*
X95698297Y-143008228D01*
X95634147Y-143163100D01*
X95541015Y-143302481D01*
X95422481Y-143421015D01*
X95283100Y-143514147D01*
X95128228Y-143578297D01*
X94963816Y-143611000D01*
X94796184Y-143611000D01*
X94631772Y-143578297D01*
X94476900Y-143514147D01*
X94337519Y-143421015D01*
X94218985Y-143302481D01*
X94125853Y-143163100D01*
X94061703Y-143008228D01*
X94029000Y-142843816D01*
X94029000Y-142676184D01*
X94061703Y-142511772D01*
X94125853Y-142356900D01*
X94218985Y-142217519D01*
X94337519Y-142098985D01*
X94476900Y-142005853D01*
X94631772Y-141941703D01*
X94796184Y-141909000D01*
X94963816Y-141909000D01*
X95128228Y-141941703D01*
X95128228Y-141941703D01*
G37*
G36*
X95128228Y-139401703D02*
G01*
X95283100Y-139465853D01*
X95422481Y-139558985D01*
X95541015Y-139677519D01*
X95634147Y-139816900D01*
X95698297Y-139971772D01*
X95731000Y-140136184D01*
X95731000Y-140303816D01*
X95698297Y-140468228D01*
X95634147Y-140623100D01*
X95541015Y-140762481D01*
X95422481Y-140881015D01*
X95283100Y-140974147D01*
X95128228Y-141038297D01*
X94963816Y-141071000D01*
X94796184Y-141071000D01*
X94631772Y-141038297D01*
X94476900Y-140974147D01*
X94337519Y-140881015D01*
X94218985Y-140762481D01*
X94125853Y-140623100D01*
X94061703Y-140468228D01*
X94029000Y-140303816D01*
X94029000Y-140136184D01*
X94061703Y-139971772D01*
X94125853Y-139816900D01*
X94218985Y-139677519D01*
X94337519Y-139558985D01*
X94476900Y-139465853D01*
X94631772Y-139401703D01*
X94796184Y-139369000D01*
X94963816Y-139369000D01*
X95128228Y-139401703D01*
X95128228Y-139401703D01*
G37*
G36*
X117988228Y-139401703D02*
G01*
X118143100Y-139465853D01*
X118282481Y-139558985D01*
X118401015Y-139677519D01*
X118494147Y-139816900D01*
X118558297Y-139971772D01*
X118591000Y-140136184D01*
X118591000Y-140303816D01*
X118558297Y-140468228D01*
X118494147Y-140623100D01*
X118401015Y-140762481D01*
X118282481Y-140881015D01*
X118143100Y-140974147D01*
X117988228Y-141038297D01*
X117823816Y-141071000D01*
X117656184Y-141071000D01*
X117491772Y-141038297D01*
X117336900Y-140974147D01*
X117197519Y-140881015D01*
X117078985Y-140762481D01*
X116985853Y-140623100D01*
X116921703Y-140468228D01*
X116889000Y-140303816D01*
X116889000Y-140136184D01*
X116921703Y-139971772D01*
X116985853Y-139816900D01*
X117078985Y-139677519D01*
X117197519Y-139558985D01*
X117336900Y-139465853D01*
X117491772Y-139401703D01*
X117656184Y-139369000D01*
X117823816Y-139369000D01*
X117988228Y-139401703D01*
X117988228Y-139401703D01*
G37*
G36*
X71328228Y-137799703D02*
G01*
X71483100Y-137863853D01*
X71622481Y-137956985D01*
X71741015Y-138075519D01*
X71834147Y-138214900D01*
X71898297Y-138369772D01*
X71931000Y-138534184D01*
X71931000Y-138701816D01*
X71898297Y-138866228D01*
X71834147Y-139021100D01*
X71741015Y-139160481D01*
X71622481Y-139279015D01*
X71483100Y-139372147D01*
X71328228Y-139436297D01*
X71163816Y-139469000D01*
X70996184Y-139469000D01*
X70831772Y-139436297D01*
X70676900Y-139372147D01*
X70537519Y-139279015D01*
X70418985Y-139160481D01*
X70325853Y-139021100D01*
X70261703Y-138866228D01*
X70229000Y-138701816D01*
X70229000Y-138534184D01*
X70261703Y-138369772D01*
X70325853Y-138214900D01*
X70418985Y-138075519D01*
X70537519Y-137956985D01*
X70676900Y-137863853D01*
X70831772Y-137799703D01*
X70996184Y-137767000D01*
X71163816Y-137767000D01*
X71328228Y-137799703D01*
X71328228Y-137799703D01*
G37*
G36*
X58628228Y-137799703D02*
G01*
X58783100Y-137863853D01*
X58922481Y-137956985D01*
X59041015Y-138075519D01*
X59134147Y-138214900D01*
X59198297Y-138369772D01*
X59231000Y-138534184D01*
X59231000Y-138701816D01*
X59198297Y-138866228D01*
X59134147Y-139021100D01*
X59041015Y-139160481D01*
X58922481Y-139279015D01*
X58783100Y-139372147D01*
X58628228Y-139436297D01*
X58463816Y-139469000D01*
X58296184Y-139469000D01*
X58131772Y-139436297D01*
X57976900Y-139372147D01*
X57837519Y-139279015D01*
X57718985Y-139160481D01*
X57625853Y-139021100D01*
X57561703Y-138866228D01*
X57529000Y-138701816D01*
X57529000Y-138534184D01*
X57561703Y-138369772D01*
X57625853Y-138214900D01*
X57718985Y-138075519D01*
X57837519Y-137956985D01*
X57976900Y-137863853D01*
X58131772Y-137799703D01*
X58296184Y-137767000D01*
X58463816Y-137767000D01*
X58628228Y-137799703D01*
X58628228Y-137799703D01*
G37*
G36*
X53051000Y-138749000D02*
G01*
X49949000Y-138749000D01*
X49949000Y-135647000D01*
X53051000Y-135647000D01*
X53051000Y-138749000D01*
X53051000Y-138749000D01*
G37*
G36*
X95128228Y-136861703D02*
G01*
X95283100Y-136925853D01*
X95422481Y-137018985D01*
X95541015Y-137137519D01*
X95634147Y-137276900D01*
X95698297Y-137431772D01*
X95731000Y-137596184D01*
X95731000Y-137763816D01*
X95698297Y-137928228D01*
X95634147Y-138083100D01*
X95541015Y-138222481D01*
X95422481Y-138341015D01*
X95283100Y-138434147D01*
X95128228Y-138498297D01*
X94963816Y-138531000D01*
X94796184Y-138531000D01*
X94631772Y-138498297D01*
X94476900Y-138434147D01*
X94337519Y-138341015D01*
X94218985Y-138222481D01*
X94125853Y-138083100D01*
X94061703Y-137928228D01*
X94029000Y-137763816D01*
X94029000Y-137596184D01*
X94061703Y-137431772D01*
X94125853Y-137276900D01*
X94218985Y-137137519D01*
X94337519Y-137018985D01*
X94476900Y-136925853D01*
X94631772Y-136861703D01*
X94796184Y-136829000D01*
X94963816Y-136829000D01*
X95128228Y-136861703D01*
X95128228Y-136861703D01*
G37*
G36*
X117988228Y-136861703D02*
G01*
X118143100Y-136925853D01*
X118282481Y-137018985D01*
X118401015Y-137137519D01*
X118494147Y-137276900D01*
X118558297Y-137431772D01*
X118591000Y-137596184D01*
X118591000Y-137763816D01*
X118558297Y-137928228D01*
X118494147Y-138083100D01*
X118401015Y-138222481D01*
X118282481Y-138341015D01*
X118143100Y-138434147D01*
X117988228Y-138498297D01*
X117823816Y-138531000D01*
X117656184Y-138531000D01*
X117491772Y-138498297D01*
X117336900Y-138434147D01*
X117197519Y-138341015D01*
X117078985Y-138222481D01*
X116985853Y-138083100D01*
X116921703Y-137928228D01*
X116889000Y-137763816D01*
X116889000Y-137596184D01*
X116921703Y-137431772D01*
X116985853Y-137276900D01*
X117078985Y-137137519D01*
X117197519Y-137018985D01*
X117336900Y-136925853D01*
X117491772Y-136861703D01*
X117656184Y-136829000D01*
X117823816Y-136829000D01*
X117988228Y-136861703D01*
X117988228Y-136861703D01*
G37*
G36*
X58628228Y-135259703D02*
G01*
X58783100Y-135323853D01*
X58922481Y-135416985D01*
X59041015Y-135535519D01*
X59134147Y-135674900D01*
X59198297Y-135829772D01*
X59231000Y-135994184D01*
X59231000Y-136161816D01*
X59198297Y-136326228D01*
X59134147Y-136481100D01*
X59041015Y-136620481D01*
X58922481Y-136739015D01*
X58783100Y-136832147D01*
X58628228Y-136896297D01*
X58463816Y-136929000D01*
X58296184Y-136929000D01*
X58131772Y-136896297D01*
X57976900Y-136832147D01*
X57837519Y-136739015D01*
X57718985Y-136620481D01*
X57625853Y-136481100D01*
X57561703Y-136326228D01*
X57529000Y-136161816D01*
X57529000Y-135994184D01*
X57561703Y-135829772D01*
X57625853Y-135674900D01*
X57718985Y-135535519D01*
X57837519Y-135416985D01*
X57976900Y-135323853D01*
X58131772Y-135259703D01*
X58296184Y-135227000D01*
X58463816Y-135227000D01*
X58628228Y-135259703D01*
X58628228Y-135259703D01*
G37*
G36*
X71328228Y-135259703D02*
G01*
X71483100Y-135323853D01*
X71622481Y-135416985D01*
X71741015Y-135535519D01*
X71834147Y-135674900D01*
X71898297Y-135829772D01*
X71931000Y-135994184D01*
X71931000Y-136161816D01*
X71898297Y-136326228D01*
X71834147Y-136481100D01*
X71741015Y-136620481D01*
X71622481Y-136739015D01*
X71483100Y-136832147D01*
X71328228Y-136896297D01*
X71163816Y-136929000D01*
X70996184Y-136929000D01*
X70831772Y-136896297D01*
X70676900Y-136832147D01*
X70537519Y-136739015D01*
X70418985Y-136620481D01*
X70325853Y-136481100D01*
X70261703Y-136326228D01*
X70229000Y-136161816D01*
X70229000Y-135994184D01*
X70261703Y-135829772D01*
X70325853Y-135674900D01*
X70418985Y-135535519D01*
X70537519Y-135416985D01*
X70676900Y-135323853D01*
X70831772Y-135259703D01*
X70996184Y-135227000D01*
X71163816Y-135227000D01*
X71328228Y-135259703D01*
X71328228Y-135259703D01*
G37*
G36*
X117988228Y-134321703D02*
G01*
X118143100Y-134385853D01*
X118282481Y-134478985D01*
X118401015Y-134597519D01*
X118494147Y-134736900D01*
X118558297Y-134891772D01*
X118591000Y-135056184D01*
X118591000Y-135223816D01*
X118558297Y-135388228D01*
X118494147Y-135543100D01*
X118401015Y-135682481D01*
X118282481Y-135801015D01*
X118143100Y-135894147D01*
X117988228Y-135958297D01*
X117823816Y-135991000D01*
X117656184Y-135991000D01*
X117491772Y-135958297D01*
X117336900Y-135894147D01*
X117197519Y-135801015D01*
X117078985Y-135682481D01*
X116985853Y-135543100D01*
X116921703Y-135388228D01*
X116889000Y-135223816D01*
X116889000Y-135056184D01*
X116921703Y-134891772D01*
X116985853Y-134736900D01*
X117078985Y-134597519D01*
X117197519Y-134478985D01*
X117336900Y-134385853D01*
X117491772Y-134321703D01*
X117656184Y-134289000D01*
X117823816Y-134289000D01*
X117988228Y-134321703D01*
X117988228Y-134321703D01*
G37*
G36*
X95128228Y-134321703D02*
G01*
X95283100Y-134385853D01*
X95422481Y-134478985D01*
X95541015Y-134597519D01*
X95634147Y-134736900D01*
X95698297Y-134891772D01*
X95731000Y-135056184D01*
X95731000Y-135223816D01*
X95698297Y-135388228D01*
X95634147Y-135543100D01*
X95541015Y-135682481D01*
X95422481Y-135801015D01*
X95283100Y-135894147D01*
X95128228Y-135958297D01*
X94963816Y-135991000D01*
X94796184Y-135991000D01*
X94631772Y-135958297D01*
X94476900Y-135894147D01*
X94337519Y-135801015D01*
X94218985Y-135682481D01*
X94125853Y-135543100D01*
X94061703Y-135388228D01*
X94029000Y-135223816D01*
X94029000Y-135056184D01*
X94061703Y-134891772D01*
X94125853Y-134736900D01*
X94218985Y-134597519D01*
X94337519Y-134478985D01*
X94476900Y-134385853D01*
X94631772Y-134321703D01*
X94796184Y-134289000D01*
X94963816Y-134289000D01*
X95128228Y-134321703D01*
X95128228Y-134321703D01*
G37*
G36*
X71328228Y-132719703D02*
G01*
X71483100Y-132783853D01*
X71622481Y-132876985D01*
X71741015Y-132995519D01*
X71834147Y-133134900D01*
X71898297Y-133289772D01*
X71931000Y-133454184D01*
X71931000Y-133621816D01*
X71898297Y-133786228D01*
X71834147Y-133941100D01*
X71741015Y-134080481D01*
X71622481Y-134199015D01*
X71483100Y-134292147D01*
X71328228Y-134356297D01*
X71163816Y-134389000D01*
X70996184Y-134389000D01*
X70831772Y-134356297D01*
X70676900Y-134292147D01*
X70537519Y-134199015D01*
X70418985Y-134080481D01*
X70325853Y-133941100D01*
X70261703Y-133786228D01*
X70229000Y-133621816D01*
X70229000Y-133454184D01*
X70261703Y-133289772D01*
X70325853Y-133134900D01*
X70418985Y-132995519D01*
X70537519Y-132876985D01*
X70676900Y-132783853D01*
X70831772Y-132719703D01*
X70996184Y-132687000D01*
X71163816Y-132687000D01*
X71328228Y-132719703D01*
X71328228Y-132719703D01*
G37*
G36*
X58628228Y-132719703D02*
G01*
X58783100Y-132783853D01*
X58922481Y-132876985D01*
X59041015Y-132995519D01*
X59134147Y-133134900D01*
X59198297Y-133289772D01*
X59231000Y-133454184D01*
X59231000Y-133621816D01*
X59198297Y-133786228D01*
X59134147Y-133941100D01*
X59041015Y-134080481D01*
X58922481Y-134199015D01*
X58783100Y-134292147D01*
X58628228Y-134356297D01*
X58463816Y-134389000D01*
X58296184Y-134389000D01*
X58131772Y-134356297D01*
X57976900Y-134292147D01*
X57837519Y-134199015D01*
X57718985Y-134080481D01*
X57625853Y-133941100D01*
X57561703Y-133786228D01*
X57529000Y-133621816D01*
X57529000Y-133454184D01*
X57561703Y-133289772D01*
X57625853Y-133134900D01*
X57718985Y-132995519D01*
X57837519Y-132876985D01*
X57976900Y-132783853D01*
X58131772Y-132719703D01*
X58296184Y-132687000D01*
X58463816Y-132687000D01*
X58628228Y-132719703D01*
X58628228Y-132719703D01*
G37*
G36*
X51793023Y-130594900D02*
G01*
X51952410Y-130626604D01*
X52234674Y-130743521D01*
X52488705Y-130913259D01*
X52704741Y-131129295D01*
X52874479Y-131383326D01*
X52991396Y-131665590D01*
X52991396Y-131665591D01*
X53027879Y-131849000D01*
X53051000Y-131965240D01*
X53051000Y-132270760D01*
X52991396Y-132570410D01*
X52874479Y-132852674D01*
X52704741Y-133106705D01*
X52488705Y-133322741D01*
X52234674Y-133492479D01*
X51952410Y-133609396D01*
X51889975Y-133621815D01*
X51652761Y-133669000D01*
X51347239Y-133669000D01*
X51110025Y-133621815D01*
X51047590Y-133609396D01*
X50765326Y-133492479D01*
X50511295Y-133322741D01*
X50295259Y-133106705D01*
X50125521Y-132852674D01*
X50008604Y-132570410D01*
X49949000Y-132270760D01*
X49949000Y-131965240D01*
X49972122Y-131849000D01*
X50008604Y-131665591D01*
X50008604Y-131665590D01*
X50125521Y-131383326D01*
X50295259Y-131129295D01*
X50511295Y-130913259D01*
X50765326Y-130743521D01*
X51047590Y-130626604D01*
X51206977Y-130594900D01*
X51347239Y-130567000D01*
X51652761Y-130567000D01*
X51793023Y-130594900D01*
X51793023Y-130594900D01*
G37*
G36*
X117988228Y-131781703D02*
G01*
X118143100Y-131845853D01*
X118282481Y-131938985D01*
X118401015Y-132057519D01*
X118494147Y-132196900D01*
X118558297Y-132351772D01*
X118591000Y-132516184D01*
X118591000Y-132683816D01*
X118558297Y-132848228D01*
X118494147Y-133003100D01*
X118401015Y-133142481D01*
X118282481Y-133261015D01*
X118143100Y-133354147D01*
X117988228Y-133418297D01*
X117823816Y-133451000D01*
X117656184Y-133451000D01*
X117491772Y-133418297D01*
X117336900Y-133354147D01*
X117197519Y-133261015D01*
X117078985Y-133142481D01*
X116985853Y-133003100D01*
X116921703Y-132848228D01*
X116889000Y-132683816D01*
X116889000Y-132516184D01*
X116921703Y-132351772D01*
X116985853Y-132196900D01*
X117078985Y-132057519D01*
X117197519Y-131938985D01*
X117336900Y-131845853D01*
X117491772Y-131781703D01*
X117656184Y-131749000D01*
X117823816Y-131749000D01*
X117988228Y-131781703D01*
X117988228Y-131781703D01*
G37*
G36*
X95128228Y-131781703D02*
G01*
X95283100Y-131845853D01*
X95422481Y-131938985D01*
X95541015Y-132057519D01*
X95634147Y-132196900D01*
X95698297Y-132351772D01*
X95731000Y-132516184D01*
X95731000Y-132683816D01*
X95698297Y-132848228D01*
X95634147Y-133003100D01*
X95541015Y-133142481D01*
X95422481Y-133261015D01*
X95283100Y-133354147D01*
X95128228Y-133418297D01*
X94963816Y-133451000D01*
X94796184Y-133451000D01*
X94631772Y-133418297D01*
X94476900Y-133354147D01*
X94337519Y-133261015D01*
X94218985Y-133142481D01*
X94125853Y-133003100D01*
X94061703Y-132848228D01*
X94029000Y-132683816D01*
X94029000Y-132516184D01*
X94061703Y-132351772D01*
X94125853Y-132196900D01*
X94218985Y-132057519D01*
X94337519Y-131938985D01*
X94476900Y-131845853D01*
X94631772Y-131781703D01*
X94796184Y-131749000D01*
X94963816Y-131749000D01*
X95128228Y-131781703D01*
X95128228Y-131781703D01*
G37*
G36*
X58628228Y-130179703D02*
G01*
X58783100Y-130243853D01*
X58922481Y-130336985D01*
X59041015Y-130455519D01*
X59134147Y-130594900D01*
X59198297Y-130749772D01*
X59231000Y-130914184D01*
X59231000Y-131081816D01*
X59198297Y-131246228D01*
X59134147Y-131401100D01*
X59041015Y-131540481D01*
X58922481Y-131659015D01*
X58783100Y-131752147D01*
X58628228Y-131816297D01*
X58463816Y-131849000D01*
X58296184Y-131849000D01*
X58131772Y-131816297D01*
X57976900Y-131752147D01*
X57837519Y-131659015D01*
X57718985Y-131540481D01*
X57625853Y-131401100D01*
X57561703Y-131246228D01*
X57529000Y-131081816D01*
X57529000Y-130914184D01*
X57561703Y-130749772D01*
X57625853Y-130594900D01*
X57718985Y-130455519D01*
X57837519Y-130336985D01*
X57976900Y-130243853D01*
X58131772Y-130179703D01*
X58296184Y-130147000D01*
X58463816Y-130147000D01*
X58628228Y-130179703D01*
X58628228Y-130179703D01*
G37*
G36*
X71328228Y-130179703D02*
G01*
X71483100Y-130243853D01*
X71622481Y-130336985D01*
X71741015Y-130455519D01*
X71834147Y-130594900D01*
X71898297Y-130749772D01*
X71931000Y-130914184D01*
X71931000Y-131081816D01*
X71898297Y-131246228D01*
X71834147Y-131401100D01*
X71741015Y-131540481D01*
X71622481Y-131659015D01*
X71483100Y-131752147D01*
X71328228Y-131816297D01*
X71163816Y-131849000D01*
X70996184Y-131849000D01*
X70831772Y-131816297D01*
X70676900Y-131752147D01*
X70537519Y-131659015D01*
X70418985Y-131540481D01*
X70325853Y-131401100D01*
X70261703Y-131246228D01*
X70229000Y-131081816D01*
X70229000Y-130914184D01*
X70261703Y-130749772D01*
X70325853Y-130594900D01*
X70418985Y-130455519D01*
X70537519Y-130336985D01*
X70676900Y-130243853D01*
X70831772Y-130179703D01*
X70996184Y-130147000D01*
X71163816Y-130147000D01*
X71328228Y-130179703D01*
X71328228Y-130179703D01*
G37*
G36*
X95128228Y-129241703D02*
G01*
X95283100Y-129305853D01*
X95422481Y-129398985D01*
X95541015Y-129517519D01*
X95634147Y-129656900D01*
X95698297Y-129811772D01*
X95731000Y-129976184D01*
X95731000Y-130143816D01*
X95698297Y-130308228D01*
X95634147Y-130463100D01*
X95541015Y-130602481D01*
X95422481Y-130721015D01*
X95283100Y-130814147D01*
X95128228Y-130878297D01*
X94963816Y-130911000D01*
X94796184Y-130911000D01*
X94631772Y-130878297D01*
X94476900Y-130814147D01*
X94337519Y-130721015D01*
X94218985Y-130602481D01*
X94125853Y-130463100D01*
X94061703Y-130308228D01*
X94029000Y-130143816D01*
X94029000Y-129976184D01*
X94061703Y-129811772D01*
X94125853Y-129656900D01*
X94218985Y-129517519D01*
X94337519Y-129398985D01*
X94476900Y-129305853D01*
X94631772Y-129241703D01*
X94796184Y-129209000D01*
X94963816Y-129209000D01*
X95128228Y-129241703D01*
X95128228Y-129241703D01*
G37*
G36*
X117988228Y-129241703D02*
G01*
X118143100Y-129305853D01*
X118282481Y-129398985D01*
X118401015Y-129517519D01*
X118494147Y-129656900D01*
X118558297Y-129811772D01*
X118591000Y-129976184D01*
X118591000Y-130143816D01*
X118558297Y-130308228D01*
X118494147Y-130463100D01*
X118401015Y-130602481D01*
X118282481Y-130721015D01*
X118143100Y-130814147D01*
X117988228Y-130878297D01*
X117823816Y-130911000D01*
X117656184Y-130911000D01*
X117491772Y-130878297D01*
X117336900Y-130814147D01*
X117197519Y-130721015D01*
X117078985Y-130602481D01*
X116985853Y-130463100D01*
X116921703Y-130308228D01*
X116889000Y-130143816D01*
X116889000Y-129976184D01*
X116921703Y-129811772D01*
X116985853Y-129656900D01*
X117078985Y-129517519D01*
X117197519Y-129398985D01*
X117336900Y-129305853D01*
X117491772Y-129241703D01*
X117656184Y-129209000D01*
X117823816Y-129209000D01*
X117988228Y-129241703D01*
X117988228Y-129241703D01*
G37*
G36*
X58628228Y-127639703D02*
G01*
X58783100Y-127703853D01*
X58922481Y-127796985D01*
X59041015Y-127915519D01*
X59134147Y-128054900D01*
X59198297Y-128209772D01*
X59231000Y-128374184D01*
X59231000Y-128541816D01*
X59198297Y-128706228D01*
X59134147Y-128861100D01*
X59041015Y-129000481D01*
X58922481Y-129119015D01*
X58783100Y-129212147D01*
X58628228Y-129276297D01*
X58463816Y-129309000D01*
X58296184Y-129309000D01*
X58131772Y-129276297D01*
X57976900Y-129212147D01*
X57837519Y-129119015D01*
X57718985Y-129000481D01*
X57625853Y-128861100D01*
X57561703Y-128706228D01*
X57529000Y-128541816D01*
X57529000Y-128374184D01*
X57561703Y-128209772D01*
X57625853Y-128054900D01*
X57718985Y-127915519D01*
X57837519Y-127796985D01*
X57976900Y-127703853D01*
X58131772Y-127639703D01*
X58296184Y-127607000D01*
X58463816Y-127607000D01*
X58628228Y-127639703D01*
X58628228Y-127639703D01*
G37*
G36*
X71328228Y-127639703D02*
G01*
X71483100Y-127703853D01*
X71622481Y-127796985D01*
X71741015Y-127915519D01*
X71834147Y-128054900D01*
X71898297Y-128209772D01*
X71931000Y-128374184D01*
X71931000Y-128541816D01*
X71898297Y-128706228D01*
X71834147Y-128861100D01*
X71741015Y-129000481D01*
X71622481Y-129119015D01*
X71483100Y-129212147D01*
X71328228Y-129276297D01*
X71163816Y-129309000D01*
X70996184Y-129309000D01*
X70831772Y-129276297D01*
X70676900Y-129212147D01*
X70537519Y-129119015D01*
X70418985Y-129000481D01*
X70325853Y-128861100D01*
X70261703Y-128706228D01*
X70229000Y-128541816D01*
X70229000Y-128374184D01*
X70261703Y-128209772D01*
X70325853Y-128054900D01*
X70418985Y-127915519D01*
X70537519Y-127796985D01*
X70676900Y-127703853D01*
X70831772Y-127639703D01*
X70996184Y-127607000D01*
X71163816Y-127607000D01*
X71328228Y-127639703D01*
X71328228Y-127639703D01*
G37*
G36*
X51793023Y-125514900D02*
G01*
X51952410Y-125546604D01*
X52234674Y-125663521D01*
X52488705Y-125833259D01*
X52704741Y-126049295D01*
X52874479Y-126303326D01*
X52991396Y-126585590D01*
X52991396Y-126585591D01*
X53027879Y-126769000D01*
X53051000Y-126885240D01*
X53051000Y-127190760D01*
X52991396Y-127490410D01*
X52874479Y-127772674D01*
X52704741Y-128026705D01*
X52488705Y-128242741D01*
X52234674Y-128412479D01*
X51952410Y-128529396D01*
X51889975Y-128541815D01*
X51652761Y-128589000D01*
X51347239Y-128589000D01*
X51110025Y-128541815D01*
X51047590Y-128529396D01*
X50765326Y-128412479D01*
X50511295Y-128242741D01*
X50295259Y-128026705D01*
X50125521Y-127772674D01*
X50008604Y-127490410D01*
X49949000Y-127190760D01*
X49949000Y-126885240D01*
X49972122Y-126769000D01*
X50008604Y-126585591D01*
X50008604Y-126585590D01*
X50125521Y-126303326D01*
X50295259Y-126049295D01*
X50511295Y-125833259D01*
X50765326Y-125663521D01*
X51047590Y-125546604D01*
X51206977Y-125514900D01*
X51347239Y-125487000D01*
X51652761Y-125487000D01*
X51793023Y-125514900D01*
X51793023Y-125514900D01*
G37*
G36*
X117988228Y-126701703D02*
G01*
X118143100Y-126765853D01*
X118282481Y-126858985D01*
X118401015Y-126977519D01*
X118494147Y-127116900D01*
X118558297Y-127271772D01*
X118591000Y-127436184D01*
X118591000Y-127603816D01*
X118558297Y-127768228D01*
X118494147Y-127923100D01*
X118401015Y-128062481D01*
X118282481Y-128181015D01*
X118143100Y-128274147D01*
X117988228Y-128338297D01*
X117823816Y-128371000D01*
X117656184Y-128371000D01*
X117491772Y-128338297D01*
X117336900Y-128274147D01*
X117197519Y-128181015D01*
X117078985Y-128062481D01*
X116985853Y-127923100D01*
X116921703Y-127768228D01*
X116889000Y-127603816D01*
X116889000Y-127436184D01*
X116921703Y-127271772D01*
X116985853Y-127116900D01*
X117078985Y-126977519D01*
X117197519Y-126858985D01*
X117336900Y-126765853D01*
X117491772Y-126701703D01*
X117656184Y-126669000D01*
X117823816Y-126669000D01*
X117988228Y-126701703D01*
X117988228Y-126701703D01*
G37*
G36*
X95128228Y-126701703D02*
G01*
X95283100Y-126765853D01*
X95422481Y-126858985D01*
X95541015Y-126977519D01*
X95634147Y-127116900D01*
X95698297Y-127271772D01*
X95731000Y-127436184D01*
X95731000Y-127603816D01*
X95698297Y-127768228D01*
X95634147Y-127923100D01*
X95541015Y-128062481D01*
X95422481Y-128181015D01*
X95283100Y-128274147D01*
X95128228Y-128338297D01*
X94963816Y-128371000D01*
X94796184Y-128371000D01*
X94631772Y-128338297D01*
X94476900Y-128274147D01*
X94337519Y-128181015D01*
X94218985Y-128062481D01*
X94125853Y-127923100D01*
X94061703Y-127768228D01*
X94029000Y-127603816D01*
X94029000Y-127436184D01*
X94061703Y-127271772D01*
X94125853Y-127116900D01*
X94218985Y-126977519D01*
X94337519Y-126858985D01*
X94476900Y-126765853D01*
X94631772Y-126701703D01*
X94796184Y-126669000D01*
X94963816Y-126669000D01*
X95128228Y-126701703D01*
X95128228Y-126701703D01*
G37*
G36*
X58628228Y-125099703D02*
G01*
X58783100Y-125163853D01*
X58922481Y-125256985D01*
X59041015Y-125375519D01*
X59134147Y-125514900D01*
X59198297Y-125669772D01*
X59231000Y-125834184D01*
X59231000Y-126001816D01*
X59198297Y-126166228D01*
X59134147Y-126321100D01*
X59041015Y-126460481D01*
X58922481Y-126579015D01*
X58783100Y-126672147D01*
X58628228Y-126736297D01*
X58463816Y-126769000D01*
X58296184Y-126769000D01*
X58131772Y-126736297D01*
X57976900Y-126672147D01*
X57837519Y-126579015D01*
X57718985Y-126460481D01*
X57625853Y-126321100D01*
X57561703Y-126166228D01*
X57529000Y-126001816D01*
X57529000Y-125834184D01*
X57561703Y-125669772D01*
X57625853Y-125514900D01*
X57718985Y-125375519D01*
X57837519Y-125256985D01*
X57976900Y-125163853D01*
X58131772Y-125099703D01*
X58296184Y-125067000D01*
X58463816Y-125067000D01*
X58628228Y-125099703D01*
X58628228Y-125099703D01*
G37*
G36*
X71328228Y-125099703D02*
G01*
X71483100Y-125163853D01*
X71622481Y-125256985D01*
X71741015Y-125375519D01*
X71834147Y-125514900D01*
X71898297Y-125669772D01*
X71931000Y-125834184D01*
X71931000Y-126001816D01*
X71898297Y-126166228D01*
X71834147Y-126321100D01*
X71741015Y-126460481D01*
X71622481Y-126579015D01*
X71483100Y-126672147D01*
X71328228Y-126736297D01*
X71163816Y-126769000D01*
X70996184Y-126769000D01*
X70831772Y-126736297D01*
X70676900Y-126672147D01*
X70537519Y-126579015D01*
X70418985Y-126460481D01*
X70325853Y-126321100D01*
X70261703Y-126166228D01*
X70229000Y-126001816D01*
X70229000Y-125834184D01*
X70261703Y-125669772D01*
X70325853Y-125514900D01*
X70418985Y-125375519D01*
X70537519Y-125256985D01*
X70676900Y-125163853D01*
X70831772Y-125099703D01*
X70996184Y-125067000D01*
X71163816Y-125067000D01*
X71328228Y-125099703D01*
X71328228Y-125099703D01*
G37*
G36*
X117988228Y-124161703D02*
G01*
X118143100Y-124225853D01*
X118282481Y-124318985D01*
X118401015Y-124437519D01*
X118494147Y-124576900D01*
X118558297Y-124731772D01*
X118591000Y-124896184D01*
X118591000Y-125063816D01*
X118558297Y-125228228D01*
X118494147Y-125383100D01*
X118401015Y-125522481D01*
X118282481Y-125641015D01*
X118143100Y-125734147D01*
X117988228Y-125798297D01*
X117823816Y-125831000D01*
X117656184Y-125831000D01*
X117491772Y-125798297D01*
X117336900Y-125734147D01*
X117197519Y-125641015D01*
X117078985Y-125522481D01*
X116985853Y-125383100D01*
X116921703Y-125228228D01*
X116889000Y-125063816D01*
X116889000Y-124896184D01*
X116921703Y-124731772D01*
X116985853Y-124576900D01*
X117078985Y-124437519D01*
X117197519Y-124318985D01*
X117336900Y-124225853D01*
X117491772Y-124161703D01*
X117656184Y-124129000D01*
X117823816Y-124129000D01*
X117988228Y-124161703D01*
X117988228Y-124161703D01*
G37*
G36*
X95128228Y-124161703D02*
G01*
X95283100Y-124225853D01*
X95422481Y-124318985D01*
X95541015Y-124437519D01*
X95634147Y-124576900D01*
X95698297Y-124731772D01*
X95731000Y-124896184D01*
X95731000Y-125063816D01*
X95698297Y-125228228D01*
X95634147Y-125383100D01*
X95541015Y-125522481D01*
X95422481Y-125641015D01*
X95283100Y-125734147D01*
X95128228Y-125798297D01*
X94963816Y-125831000D01*
X94796184Y-125831000D01*
X94631772Y-125798297D01*
X94476900Y-125734147D01*
X94337519Y-125641015D01*
X94218985Y-125522481D01*
X94125853Y-125383100D01*
X94061703Y-125228228D01*
X94029000Y-125063816D01*
X94029000Y-124896184D01*
X94061703Y-124731772D01*
X94125853Y-124576900D01*
X94218985Y-124437519D01*
X94337519Y-124318985D01*
X94476900Y-124225853D01*
X94631772Y-124161703D01*
X94796184Y-124129000D01*
X94963816Y-124129000D01*
X95128228Y-124161703D01*
X95128228Y-124161703D01*
G37*
G36*
X71328228Y-122559703D02*
G01*
X71483100Y-122623853D01*
X71622481Y-122716985D01*
X71741015Y-122835519D01*
X71834147Y-122974900D01*
X71898297Y-123129772D01*
X71931000Y-123294184D01*
X71931000Y-123461816D01*
X71898297Y-123626228D01*
X71834147Y-123781100D01*
X71741015Y-123920481D01*
X71622481Y-124039015D01*
X71483100Y-124132147D01*
X71328228Y-124196297D01*
X71163816Y-124229000D01*
X70996184Y-124229000D01*
X70831772Y-124196297D01*
X70676900Y-124132147D01*
X70537519Y-124039015D01*
X70418985Y-123920481D01*
X70325853Y-123781100D01*
X70261703Y-123626228D01*
X70229000Y-123461816D01*
X70229000Y-123294184D01*
X70261703Y-123129772D01*
X70325853Y-122974900D01*
X70418985Y-122835519D01*
X70537519Y-122716985D01*
X70676900Y-122623853D01*
X70831772Y-122559703D01*
X70996184Y-122527000D01*
X71163816Y-122527000D01*
X71328228Y-122559703D01*
X71328228Y-122559703D01*
G37*
G36*
X58628228Y-122559703D02*
G01*
X58783100Y-122623853D01*
X58922481Y-122716985D01*
X59041015Y-122835519D01*
X59134147Y-122974900D01*
X59198297Y-123129772D01*
X59231000Y-123294184D01*
X59231000Y-123461816D01*
X59198297Y-123626228D01*
X59134147Y-123781100D01*
X59041015Y-123920481D01*
X58922481Y-124039015D01*
X58783100Y-124132147D01*
X58628228Y-124196297D01*
X58463816Y-124229000D01*
X58296184Y-124229000D01*
X58131772Y-124196297D01*
X57976900Y-124132147D01*
X57837519Y-124039015D01*
X57718985Y-123920481D01*
X57625853Y-123781100D01*
X57561703Y-123626228D01*
X57529000Y-123461816D01*
X57529000Y-123294184D01*
X57561703Y-123129772D01*
X57625853Y-122974900D01*
X57718985Y-122835519D01*
X57837519Y-122716985D01*
X57976900Y-122623853D01*
X58131772Y-122559703D01*
X58296184Y-122527000D01*
X58463816Y-122527000D01*
X58628228Y-122559703D01*
X58628228Y-122559703D01*
G37*
G36*
X51793023Y-120434900D02*
G01*
X51952410Y-120466604D01*
X52234674Y-120583521D01*
X52488705Y-120753259D01*
X52704741Y-120969295D01*
X52874479Y-121223326D01*
X52991396Y-121505590D01*
X52991396Y-121505591D01*
X53027879Y-121689000D01*
X53051000Y-121805240D01*
X53051000Y-122110760D01*
X52991396Y-122410410D01*
X52874479Y-122692674D01*
X52704741Y-122946705D01*
X52488705Y-123162741D01*
X52234674Y-123332479D01*
X51952410Y-123449396D01*
X51889975Y-123461815D01*
X51652761Y-123509000D01*
X51347239Y-123509000D01*
X51110025Y-123461815D01*
X51047590Y-123449396D01*
X50765326Y-123332479D01*
X50511295Y-123162741D01*
X50295259Y-122946705D01*
X50125521Y-122692674D01*
X50008604Y-122410410D01*
X49949000Y-122110760D01*
X49949000Y-121805240D01*
X49972122Y-121689000D01*
X50008604Y-121505591D01*
X50008604Y-121505590D01*
X50125521Y-121223326D01*
X50295259Y-120969295D01*
X50511295Y-120753259D01*
X50765326Y-120583521D01*
X51047590Y-120466604D01*
X51206977Y-120434900D01*
X51347239Y-120407000D01*
X51652761Y-120407000D01*
X51793023Y-120434900D01*
X51793023Y-120434900D01*
G37*
G36*
X95128228Y-121621703D02*
G01*
X95283100Y-121685853D01*
X95422481Y-121778985D01*
X95541015Y-121897519D01*
X95634147Y-122036900D01*
X95698297Y-122191772D01*
X95731000Y-122356184D01*
X95731000Y-122523816D01*
X95698297Y-122688228D01*
X95634147Y-122843100D01*
X95541015Y-122982481D01*
X95422481Y-123101015D01*
X95283100Y-123194147D01*
X95128228Y-123258297D01*
X94963816Y-123291000D01*
X94796184Y-123291000D01*
X94631772Y-123258297D01*
X94476900Y-123194147D01*
X94337519Y-123101015D01*
X94218985Y-122982481D01*
X94125853Y-122843100D01*
X94061703Y-122688228D01*
X94029000Y-122523816D01*
X94029000Y-122356184D01*
X94061703Y-122191772D01*
X94125853Y-122036900D01*
X94218985Y-121897519D01*
X94337519Y-121778985D01*
X94476900Y-121685853D01*
X94631772Y-121621703D01*
X94796184Y-121589000D01*
X94963816Y-121589000D01*
X95128228Y-121621703D01*
X95128228Y-121621703D01*
G37*
G36*
X117988228Y-121621703D02*
G01*
X118143100Y-121685853D01*
X118282481Y-121778985D01*
X118401015Y-121897519D01*
X118494147Y-122036900D01*
X118558297Y-122191772D01*
X118591000Y-122356184D01*
X118591000Y-122523816D01*
X118558297Y-122688228D01*
X118494147Y-122843100D01*
X118401015Y-122982481D01*
X118282481Y-123101015D01*
X118143100Y-123194147D01*
X117988228Y-123258297D01*
X117823816Y-123291000D01*
X117656184Y-123291000D01*
X117491772Y-123258297D01*
X117336900Y-123194147D01*
X117197519Y-123101015D01*
X117078985Y-122982481D01*
X116985853Y-122843100D01*
X116921703Y-122688228D01*
X116889000Y-122523816D01*
X116889000Y-122356184D01*
X116921703Y-122191772D01*
X116985853Y-122036900D01*
X117078985Y-121897519D01*
X117197519Y-121778985D01*
X117336900Y-121685853D01*
X117491772Y-121621703D01*
X117656184Y-121589000D01*
X117823816Y-121589000D01*
X117988228Y-121621703D01*
X117988228Y-121621703D01*
G37*
G36*
X58628228Y-120019703D02*
G01*
X58783100Y-120083853D01*
X58922481Y-120176985D01*
X59041015Y-120295519D01*
X59134147Y-120434900D01*
X59198297Y-120589772D01*
X59231000Y-120754184D01*
X59231000Y-120921816D01*
X59198297Y-121086228D01*
X59134147Y-121241100D01*
X59041015Y-121380481D01*
X58922481Y-121499015D01*
X58783100Y-121592147D01*
X58628228Y-121656297D01*
X58463816Y-121689000D01*
X58296184Y-121689000D01*
X58131772Y-121656297D01*
X57976900Y-121592147D01*
X57837519Y-121499015D01*
X57718985Y-121380481D01*
X57625853Y-121241100D01*
X57561703Y-121086228D01*
X57529000Y-120921816D01*
X57529000Y-120754184D01*
X57561703Y-120589772D01*
X57625853Y-120434900D01*
X57718985Y-120295519D01*
X57837519Y-120176985D01*
X57976900Y-120083853D01*
X58131772Y-120019703D01*
X58296184Y-119987000D01*
X58463816Y-119987000D01*
X58628228Y-120019703D01*
X58628228Y-120019703D01*
G37*
G36*
X71328228Y-120019703D02*
G01*
X71483100Y-120083853D01*
X71622481Y-120176985D01*
X71741015Y-120295519D01*
X71834147Y-120434900D01*
X71898297Y-120589772D01*
X71931000Y-120754184D01*
X71931000Y-120921816D01*
X71898297Y-121086228D01*
X71834147Y-121241100D01*
X71741015Y-121380481D01*
X71622481Y-121499015D01*
X71483100Y-121592147D01*
X71328228Y-121656297D01*
X71163816Y-121689000D01*
X70996184Y-121689000D01*
X70831772Y-121656297D01*
X70676900Y-121592147D01*
X70537519Y-121499015D01*
X70418985Y-121380481D01*
X70325853Y-121241100D01*
X70261703Y-121086228D01*
X70229000Y-120921816D01*
X70229000Y-120754184D01*
X70261703Y-120589772D01*
X70325853Y-120434900D01*
X70418985Y-120295519D01*
X70537519Y-120176985D01*
X70676900Y-120083853D01*
X70831772Y-120019703D01*
X70996184Y-119987000D01*
X71163816Y-119987000D01*
X71328228Y-120019703D01*
X71328228Y-120019703D01*
G37*
G36*
X68788228Y-120019703D02*
G01*
X68943100Y-120083853D01*
X69082481Y-120176985D01*
X69201015Y-120295519D01*
X69294147Y-120434900D01*
X69358297Y-120589772D01*
X69391000Y-120754184D01*
X69391000Y-120921816D01*
X69358297Y-121086228D01*
X69294147Y-121241100D01*
X69201015Y-121380481D01*
X69082481Y-121499015D01*
X68943100Y-121592147D01*
X68788228Y-121656297D01*
X68623816Y-121689000D01*
X68456184Y-121689000D01*
X68291772Y-121656297D01*
X68136900Y-121592147D01*
X67997519Y-121499015D01*
X67878985Y-121380481D01*
X67785853Y-121241100D01*
X67721703Y-121086228D01*
X67689000Y-120921816D01*
X67689000Y-120754184D01*
X67721703Y-120589772D01*
X67785853Y-120434900D01*
X67878985Y-120295519D01*
X67997519Y-120176985D01*
X68136900Y-120083853D01*
X68291772Y-120019703D01*
X68456184Y-119987000D01*
X68623816Y-119987000D01*
X68788228Y-120019703D01*
X68788228Y-120019703D01*
G37*
G36*
X66248228Y-120019703D02*
G01*
X66403100Y-120083853D01*
X66542481Y-120176985D01*
X66661015Y-120295519D01*
X66754147Y-120434900D01*
X66818297Y-120589772D01*
X66851000Y-120754184D01*
X66851000Y-120921816D01*
X66818297Y-121086228D01*
X66754147Y-121241100D01*
X66661015Y-121380481D01*
X66542481Y-121499015D01*
X66403100Y-121592147D01*
X66248228Y-121656297D01*
X66083816Y-121689000D01*
X65916184Y-121689000D01*
X65751772Y-121656297D01*
X65596900Y-121592147D01*
X65457519Y-121499015D01*
X65338985Y-121380481D01*
X65245853Y-121241100D01*
X65181703Y-121086228D01*
X65149000Y-120921816D01*
X65149000Y-120754184D01*
X65181703Y-120589772D01*
X65245853Y-120434900D01*
X65338985Y-120295519D01*
X65457519Y-120176985D01*
X65596900Y-120083853D01*
X65751772Y-120019703D01*
X65916184Y-119987000D01*
X66083816Y-119987000D01*
X66248228Y-120019703D01*
X66248228Y-120019703D01*
G37*
G36*
X117988228Y-119081703D02*
G01*
X118143100Y-119145853D01*
X118282481Y-119238985D01*
X118401015Y-119357519D01*
X118494147Y-119496900D01*
X118558297Y-119651772D01*
X118591000Y-119816184D01*
X118591000Y-119983816D01*
X118558297Y-120148228D01*
X118494147Y-120303100D01*
X118401015Y-120442481D01*
X118282481Y-120561015D01*
X118143100Y-120654147D01*
X117988228Y-120718297D01*
X117823816Y-120751000D01*
X117656184Y-120751000D01*
X117491772Y-120718297D01*
X117336900Y-120654147D01*
X117197519Y-120561015D01*
X117078985Y-120442481D01*
X116985853Y-120303100D01*
X116921703Y-120148228D01*
X116889000Y-119983816D01*
X116889000Y-119816184D01*
X116921703Y-119651772D01*
X116985853Y-119496900D01*
X117078985Y-119357519D01*
X117197519Y-119238985D01*
X117336900Y-119145853D01*
X117491772Y-119081703D01*
X117656184Y-119049000D01*
X117823816Y-119049000D01*
X117988228Y-119081703D01*
X117988228Y-119081703D01*
G37*
G36*
X95128228Y-119081703D02*
G01*
X95283100Y-119145853D01*
X95422481Y-119238985D01*
X95541015Y-119357519D01*
X95634147Y-119496900D01*
X95698297Y-119651772D01*
X95731000Y-119816184D01*
X95731000Y-119983816D01*
X95698297Y-120148228D01*
X95634147Y-120303100D01*
X95541015Y-120442481D01*
X95422481Y-120561015D01*
X95283100Y-120654147D01*
X95128228Y-120718297D01*
X94963816Y-120751000D01*
X94796184Y-120751000D01*
X94631772Y-120718297D01*
X94476900Y-120654147D01*
X94337519Y-120561015D01*
X94218985Y-120442481D01*
X94125853Y-120303100D01*
X94061703Y-120148228D01*
X94029000Y-119983816D01*
X94029000Y-119816184D01*
X94061703Y-119651772D01*
X94125853Y-119496900D01*
X94218985Y-119357519D01*
X94337519Y-119238985D01*
X94476900Y-119145853D01*
X94631772Y-119081703D01*
X94796184Y-119049000D01*
X94963816Y-119049000D01*
X95128228Y-119081703D01*
X95128228Y-119081703D01*
G37*
G36*
X95128228Y-116541703D02*
G01*
X95283100Y-116605853D01*
X95422481Y-116698985D01*
X95541015Y-116817519D01*
X95634147Y-116956900D01*
X95698297Y-117111772D01*
X95731000Y-117276184D01*
X95731000Y-117443816D01*
X95698297Y-117608228D01*
X95634147Y-117763100D01*
X95541015Y-117902481D01*
X95422481Y-118021015D01*
X95283100Y-118114147D01*
X95128228Y-118178297D01*
X94963816Y-118211000D01*
X94796184Y-118211000D01*
X94631772Y-118178297D01*
X94476900Y-118114147D01*
X94337519Y-118021015D01*
X94218985Y-117902481D01*
X94125853Y-117763100D01*
X94061703Y-117608228D01*
X94029000Y-117443816D01*
X94029000Y-117276184D01*
X94061703Y-117111772D01*
X94125853Y-116956900D01*
X94218985Y-116817519D01*
X94337519Y-116698985D01*
X94476900Y-116605853D01*
X94631772Y-116541703D01*
X94796184Y-116509000D01*
X94963816Y-116509000D01*
X95128228Y-116541703D01*
X95128228Y-116541703D01*
G37*
G36*
X117988228Y-116541703D02*
G01*
X118143100Y-116605853D01*
X118282481Y-116698985D01*
X118401015Y-116817519D01*
X118494147Y-116956900D01*
X118558297Y-117111772D01*
X118591000Y-117276184D01*
X118591000Y-117443816D01*
X118558297Y-117608228D01*
X118494147Y-117763100D01*
X118401015Y-117902481D01*
X118282481Y-118021015D01*
X118143100Y-118114147D01*
X117988228Y-118178297D01*
X117823816Y-118211000D01*
X117656184Y-118211000D01*
X117491772Y-118178297D01*
X117336900Y-118114147D01*
X117197519Y-118021015D01*
X117078985Y-117902481D01*
X116985853Y-117763100D01*
X116921703Y-117608228D01*
X116889000Y-117443816D01*
X116889000Y-117276184D01*
X116921703Y-117111772D01*
X116985853Y-116956900D01*
X117078985Y-116817519D01*
X117197519Y-116698985D01*
X117336900Y-116605853D01*
X117491772Y-116541703D01*
X117656184Y-116509000D01*
X117823816Y-116509000D01*
X117988228Y-116541703D01*
X117988228Y-116541703D01*
G37*
G36*
X95128228Y-114001703D02*
G01*
X95283100Y-114065853D01*
X95422481Y-114158985D01*
X95541015Y-114277519D01*
X95634147Y-114416900D01*
X95698297Y-114571772D01*
X95731000Y-114736184D01*
X95731000Y-114903816D01*
X95698297Y-115068228D01*
X95634147Y-115223100D01*
X95541015Y-115362481D01*
X95422481Y-115481015D01*
X95283100Y-115574147D01*
X95128228Y-115638297D01*
X94963816Y-115671000D01*
X94796184Y-115671000D01*
X94631772Y-115638297D01*
X94476900Y-115574147D01*
X94337519Y-115481015D01*
X94218985Y-115362481D01*
X94125853Y-115223100D01*
X94061703Y-115068228D01*
X94029000Y-114903816D01*
X94029000Y-114736184D01*
X94061703Y-114571772D01*
X94125853Y-114416900D01*
X94218985Y-114277519D01*
X94337519Y-114158985D01*
X94476900Y-114065853D01*
X94631772Y-114001703D01*
X94796184Y-113969000D01*
X94963816Y-113969000D01*
X95128228Y-114001703D01*
X95128228Y-114001703D01*
G37*
G36*
X117988228Y-114001703D02*
G01*
X118143100Y-114065853D01*
X118282481Y-114158985D01*
X118401015Y-114277519D01*
X118494147Y-114416900D01*
X118558297Y-114571772D01*
X118591000Y-114736184D01*
X118591000Y-114903816D01*
X118558297Y-115068228D01*
X118494147Y-115223100D01*
X118401015Y-115362481D01*
X118282481Y-115481015D01*
X118143100Y-115574147D01*
X117988228Y-115638297D01*
X117823816Y-115671000D01*
X117656184Y-115671000D01*
X117491772Y-115638297D01*
X117336900Y-115574147D01*
X117197519Y-115481015D01*
X117078985Y-115362481D01*
X116985853Y-115223100D01*
X116921703Y-115068228D01*
X116889000Y-114903816D01*
X116889000Y-114736184D01*
X116921703Y-114571772D01*
X116985853Y-114416900D01*
X117078985Y-114277519D01*
X117197519Y-114158985D01*
X117336900Y-114065853D01*
X117491772Y-114001703D01*
X117656184Y-113969000D01*
X117823816Y-113969000D01*
X117988228Y-114001703D01*
X117988228Y-114001703D01*
G37*
G36*
X58628228Y-113799703D02*
G01*
X58783100Y-113863853D01*
X58922481Y-113956985D01*
X59041015Y-114075519D01*
X59134147Y-114214900D01*
X59198297Y-114369772D01*
X59231000Y-114534184D01*
X59231000Y-114701816D01*
X59198297Y-114866228D01*
X59134147Y-115021100D01*
X59041015Y-115160481D01*
X58922481Y-115279015D01*
X58783100Y-115372147D01*
X58628228Y-115436297D01*
X58463816Y-115469000D01*
X58296184Y-115469000D01*
X58131772Y-115436297D01*
X57976900Y-115372147D01*
X57837519Y-115279015D01*
X57718985Y-115160481D01*
X57625853Y-115021100D01*
X57561703Y-114866228D01*
X57529000Y-114701816D01*
X57529000Y-114534184D01*
X57561703Y-114369772D01*
X57625853Y-114214900D01*
X57718985Y-114075519D01*
X57837519Y-113956985D01*
X57976900Y-113863853D01*
X58131772Y-113799703D01*
X58296184Y-113767000D01*
X58463816Y-113767000D01*
X58628228Y-113799703D01*
X58628228Y-113799703D01*
G37*
G36*
X71328228Y-113799703D02*
G01*
X71483100Y-113863853D01*
X71622481Y-113956985D01*
X71741015Y-114075519D01*
X71834147Y-114214900D01*
X71898297Y-114369772D01*
X71931000Y-114534184D01*
X71931000Y-114701816D01*
X71898297Y-114866228D01*
X71834147Y-115021100D01*
X71741015Y-115160481D01*
X71622481Y-115279015D01*
X71483100Y-115372147D01*
X71328228Y-115436297D01*
X71163816Y-115469000D01*
X70996184Y-115469000D01*
X70831772Y-115436297D01*
X70676900Y-115372147D01*
X70537519Y-115279015D01*
X70418985Y-115160481D01*
X70325853Y-115021100D01*
X70261703Y-114866228D01*
X70229000Y-114701816D01*
X70229000Y-114534184D01*
X70261703Y-114369772D01*
X70325853Y-114214900D01*
X70418985Y-114075519D01*
X70537519Y-113956985D01*
X70676900Y-113863853D01*
X70831772Y-113799703D01*
X70996184Y-113767000D01*
X71163816Y-113767000D01*
X71328228Y-113799703D01*
X71328228Y-113799703D01*
G37*
G36*
X53051000Y-114749000D02*
G01*
X49949000Y-114749000D01*
X49949000Y-111647000D01*
X53051000Y-111647000D01*
X53051000Y-114749000D01*
X53051000Y-114749000D01*
G37*
G36*
X95128228Y-111461703D02*
G01*
X95283100Y-111525853D01*
X95422481Y-111618985D01*
X95541015Y-111737519D01*
X95634147Y-111876900D01*
X95698297Y-112031772D01*
X95731000Y-112196184D01*
X95731000Y-112363816D01*
X95698297Y-112528228D01*
X95634147Y-112683100D01*
X95541015Y-112822481D01*
X95422481Y-112941015D01*
X95283100Y-113034147D01*
X95128228Y-113098297D01*
X94963816Y-113131000D01*
X94796184Y-113131000D01*
X94631772Y-113098297D01*
X94476900Y-113034147D01*
X94337519Y-112941015D01*
X94218985Y-112822481D01*
X94125853Y-112683100D01*
X94061703Y-112528228D01*
X94029000Y-112363816D01*
X94029000Y-112196184D01*
X94061703Y-112031772D01*
X94125853Y-111876900D01*
X94218985Y-111737519D01*
X94337519Y-111618985D01*
X94476900Y-111525853D01*
X94631772Y-111461703D01*
X94796184Y-111429000D01*
X94963816Y-111429000D01*
X95128228Y-111461703D01*
X95128228Y-111461703D01*
G37*
G36*
X117988228Y-111461703D02*
G01*
X118143100Y-111525853D01*
X118282481Y-111618985D01*
X118401015Y-111737519D01*
X118494147Y-111876900D01*
X118558297Y-112031772D01*
X118591000Y-112196184D01*
X118591000Y-112363816D01*
X118558297Y-112528228D01*
X118494147Y-112683100D01*
X118401015Y-112822481D01*
X118282481Y-112941015D01*
X118143100Y-113034147D01*
X117988228Y-113098297D01*
X117823816Y-113131000D01*
X117656184Y-113131000D01*
X117491772Y-113098297D01*
X117336900Y-113034147D01*
X117197519Y-112941015D01*
X117078985Y-112822481D01*
X116985853Y-112683100D01*
X116921703Y-112528228D01*
X116889000Y-112363816D01*
X116889000Y-112196184D01*
X116921703Y-112031772D01*
X116985853Y-111876900D01*
X117078985Y-111737519D01*
X117197519Y-111618985D01*
X117336900Y-111525853D01*
X117491772Y-111461703D01*
X117656184Y-111429000D01*
X117823816Y-111429000D01*
X117988228Y-111461703D01*
X117988228Y-111461703D01*
G37*
G36*
X71328228Y-111259703D02*
G01*
X71483100Y-111323853D01*
X71622481Y-111416985D01*
X71741015Y-111535519D01*
X71834147Y-111674900D01*
X71898297Y-111829772D01*
X71931000Y-111994184D01*
X71931000Y-112161816D01*
X71898297Y-112326228D01*
X71834147Y-112481100D01*
X71741015Y-112620481D01*
X71622481Y-112739015D01*
X71483100Y-112832147D01*
X71328228Y-112896297D01*
X71163816Y-112929000D01*
X70996184Y-112929000D01*
X70831772Y-112896297D01*
X70676900Y-112832147D01*
X70537519Y-112739015D01*
X70418985Y-112620481D01*
X70325853Y-112481100D01*
X70261703Y-112326228D01*
X70229000Y-112161816D01*
X70229000Y-111994184D01*
X70261703Y-111829772D01*
X70325853Y-111674900D01*
X70418985Y-111535519D01*
X70537519Y-111416985D01*
X70676900Y-111323853D01*
X70831772Y-111259703D01*
X70996184Y-111227000D01*
X71163816Y-111227000D01*
X71328228Y-111259703D01*
X71328228Y-111259703D01*
G37*
G36*
X58628228Y-111259703D02*
G01*
X58783100Y-111323853D01*
X58922481Y-111416985D01*
X59041015Y-111535519D01*
X59134147Y-111674900D01*
X59198297Y-111829772D01*
X59231000Y-111994184D01*
X59231000Y-112161816D01*
X59198297Y-112326228D01*
X59134147Y-112481100D01*
X59041015Y-112620481D01*
X58922481Y-112739015D01*
X58783100Y-112832147D01*
X58628228Y-112896297D01*
X58463816Y-112929000D01*
X58296184Y-112929000D01*
X58131772Y-112896297D01*
X57976900Y-112832147D01*
X57837519Y-112739015D01*
X57718985Y-112620481D01*
X57625853Y-112481100D01*
X57561703Y-112326228D01*
X57529000Y-112161816D01*
X57529000Y-111994184D01*
X57561703Y-111829772D01*
X57625853Y-111674900D01*
X57718985Y-111535519D01*
X57837519Y-111416985D01*
X57976900Y-111323853D01*
X58131772Y-111259703D01*
X58296184Y-111227000D01*
X58463816Y-111227000D01*
X58628228Y-111259703D01*
X58628228Y-111259703D01*
G37*
G36*
X95128228Y-108921703D02*
G01*
X95283100Y-108985853D01*
X95422481Y-109078985D01*
X95541015Y-109197519D01*
X95634147Y-109336900D01*
X95698297Y-109491772D01*
X95731000Y-109656184D01*
X95731000Y-109823816D01*
X95698297Y-109988228D01*
X95634147Y-110143100D01*
X95541015Y-110282481D01*
X95422481Y-110401015D01*
X95283100Y-110494147D01*
X95128228Y-110558297D01*
X94963816Y-110591000D01*
X94796184Y-110591000D01*
X94631772Y-110558297D01*
X94476900Y-110494147D01*
X94337519Y-110401015D01*
X94218985Y-110282481D01*
X94125853Y-110143100D01*
X94061703Y-109988228D01*
X94029000Y-109823816D01*
X94029000Y-109656184D01*
X94061703Y-109491772D01*
X94125853Y-109336900D01*
X94218985Y-109197519D01*
X94337519Y-109078985D01*
X94476900Y-108985853D01*
X94631772Y-108921703D01*
X94796184Y-108889000D01*
X94963816Y-108889000D01*
X95128228Y-108921703D01*
X95128228Y-108921703D01*
G37*
G36*
X117988228Y-108921703D02*
G01*
X118143100Y-108985853D01*
X118282481Y-109078985D01*
X118401015Y-109197519D01*
X118494147Y-109336900D01*
X118558297Y-109491772D01*
X118591000Y-109656184D01*
X118591000Y-109823816D01*
X118558297Y-109988228D01*
X118494147Y-110143100D01*
X118401015Y-110282481D01*
X118282481Y-110401015D01*
X118143100Y-110494147D01*
X117988228Y-110558297D01*
X117823816Y-110591000D01*
X117656184Y-110591000D01*
X117491772Y-110558297D01*
X117336900Y-110494147D01*
X117197519Y-110401015D01*
X117078985Y-110282481D01*
X116985853Y-110143100D01*
X116921703Y-109988228D01*
X116889000Y-109823816D01*
X116889000Y-109656184D01*
X116921703Y-109491772D01*
X116985853Y-109336900D01*
X117078985Y-109197519D01*
X117197519Y-109078985D01*
X117336900Y-108985853D01*
X117491772Y-108921703D01*
X117656184Y-108889000D01*
X117823816Y-108889000D01*
X117988228Y-108921703D01*
X117988228Y-108921703D01*
G37*
G36*
X58628228Y-108719703D02*
G01*
X58783100Y-108783853D01*
X58922481Y-108876985D01*
X59041015Y-108995519D01*
X59134147Y-109134900D01*
X59198297Y-109289772D01*
X59231000Y-109454184D01*
X59231000Y-109621816D01*
X59198297Y-109786228D01*
X59134147Y-109941100D01*
X59041015Y-110080481D01*
X58922481Y-110199015D01*
X58783100Y-110292147D01*
X58628228Y-110356297D01*
X58463816Y-110389000D01*
X58296184Y-110389000D01*
X58131772Y-110356297D01*
X57976900Y-110292147D01*
X57837519Y-110199015D01*
X57718985Y-110080481D01*
X57625853Y-109941100D01*
X57561703Y-109786228D01*
X57529000Y-109621816D01*
X57529000Y-109454184D01*
X57561703Y-109289772D01*
X57625853Y-109134900D01*
X57718985Y-108995519D01*
X57837519Y-108876985D01*
X57976900Y-108783853D01*
X58131772Y-108719703D01*
X58296184Y-108687000D01*
X58463816Y-108687000D01*
X58628228Y-108719703D01*
X58628228Y-108719703D01*
G37*
G36*
X71328228Y-108719703D02*
G01*
X71483100Y-108783853D01*
X71622481Y-108876985D01*
X71741015Y-108995519D01*
X71834147Y-109134900D01*
X71898297Y-109289772D01*
X71931000Y-109454184D01*
X71931000Y-109621816D01*
X71898297Y-109786228D01*
X71834147Y-109941100D01*
X71741015Y-110080481D01*
X71622481Y-110199015D01*
X71483100Y-110292147D01*
X71328228Y-110356297D01*
X71163816Y-110389000D01*
X70996184Y-110389000D01*
X70831772Y-110356297D01*
X70676900Y-110292147D01*
X70537519Y-110199015D01*
X70418985Y-110080481D01*
X70325853Y-109941100D01*
X70261703Y-109786228D01*
X70229000Y-109621816D01*
X70229000Y-109454184D01*
X70261703Y-109289772D01*
X70325853Y-109134900D01*
X70418985Y-108995519D01*
X70537519Y-108876985D01*
X70676900Y-108783853D01*
X70831772Y-108719703D01*
X70996184Y-108687000D01*
X71163816Y-108687000D01*
X71328228Y-108719703D01*
X71328228Y-108719703D01*
G37*
G36*
X51793023Y-106594900D02*
G01*
X51952410Y-106626604D01*
X52234674Y-106743521D01*
X52488705Y-106913259D01*
X52704741Y-107129295D01*
X52874479Y-107383326D01*
X52991396Y-107665590D01*
X53008613Y-107752147D01*
X53048794Y-107954147D01*
X53051000Y-107965240D01*
X53051000Y-108270760D01*
X52991396Y-108570410D01*
X52874479Y-108852674D01*
X52704741Y-109106705D01*
X52488705Y-109322741D01*
X52234674Y-109492479D01*
X51952410Y-109609396D01*
X51889975Y-109621815D01*
X51652761Y-109669000D01*
X51347239Y-109669000D01*
X51110025Y-109621815D01*
X51047590Y-109609396D01*
X50765326Y-109492479D01*
X50511295Y-109322741D01*
X50295259Y-109106705D01*
X50125521Y-108852674D01*
X50008604Y-108570410D01*
X49949000Y-108270760D01*
X49949000Y-107965240D01*
X49951207Y-107954147D01*
X49991387Y-107752147D01*
X50008604Y-107665590D01*
X50125521Y-107383326D01*
X50295259Y-107129295D01*
X50511295Y-106913259D01*
X50765326Y-106743521D01*
X51047590Y-106626604D01*
X51206977Y-106594900D01*
X51347239Y-106567000D01*
X51652761Y-106567000D01*
X51793023Y-106594900D01*
X51793023Y-106594900D01*
G37*
G36*
X95128228Y-106381703D02*
G01*
X95283100Y-106445853D01*
X95422481Y-106538985D01*
X95541015Y-106657519D01*
X95634147Y-106796900D01*
X95698297Y-106951772D01*
X95731000Y-107116184D01*
X95731000Y-107283816D01*
X95698297Y-107448228D01*
X95634147Y-107603100D01*
X95541015Y-107742481D01*
X95422481Y-107861015D01*
X95283100Y-107954147D01*
X95128228Y-108018297D01*
X94963816Y-108051000D01*
X94796184Y-108051000D01*
X94631772Y-108018297D01*
X94476900Y-107954147D01*
X94337519Y-107861015D01*
X94218985Y-107742481D01*
X94125853Y-107603100D01*
X94061703Y-107448228D01*
X94029000Y-107283816D01*
X94029000Y-107116184D01*
X94061703Y-106951772D01*
X94125853Y-106796900D01*
X94218985Y-106657519D01*
X94337519Y-106538985D01*
X94476900Y-106445853D01*
X94631772Y-106381703D01*
X94796184Y-106349000D01*
X94963816Y-106349000D01*
X95128228Y-106381703D01*
X95128228Y-106381703D01*
G37*
G36*
X117988228Y-106381703D02*
G01*
X118143100Y-106445853D01*
X118282481Y-106538985D01*
X118401015Y-106657519D01*
X118494147Y-106796900D01*
X118558297Y-106951772D01*
X118591000Y-107116184D01*
X118591000Y-107283816D01*
X118558297Y-107448228D01*
X118494147Y-107603100D01*
X118401015Y-107742481D01*
X118282481Y-107861015D01*
X118143100Y-107954147D01*
X117988228Y-108018297D01*
X117823816Y-108051000D01*
X117656184Y-108051000D01*
X117491772Y-108018297D01*
X117336900Y-107954147D01*
X117197519Y-107861015D01*
X117078985Y-107742481D01*
X116985853Y-107603100D01*
X116921703Y-107448228D01*
X116889000Y-107283816D01*
X116889000Y-107116184D01*
X116921703Y-106951772D01*
X116985853Y-106796900D01*
X117078985Y-106657519D01*
X117197519Y-106538985D01*
X117336900Y-106445853D01*
X117491772Y-106381703D01*
X117656184Y-106349000D01*
X117823816Y-106349000D01*
X117988228Y-106381703D01*
X117988228Y-106381703D01*
G37*
G36*
X58628228Y-106179703D02*
G01*
X58783100Y-106243853D01*
X58922481Y-106336985D01*
X59041015Y-106455519D01*
X59134147Y-106594900D01*
X59198297Y-106749772D01*
X59231000Y-106914184D01*
X59231000Y-107081816D01*
X59198297Y-107246228D01*
X59134147Y-107401100D01*
X59041015Y-107540481D01*
X58922481Y-107659015D01*
X58783100Y-107752147D01*
X58628228Y-107816297D01*
X58463816Y-107849000D01*
X58296184Y-107849000D01*
X58131772Y-107816297D01*
X57976900Y-107752147D01*
X57837519Y-107659015D01*
X57718985Y-107540481D01*
X57625853Y-107401100D01*
X57561703Y-107246228D01*
X57529000Y-107081816D01*
X57529000Y-106914184D01*
X57561703Y-106749772D01*
X57625853Y-106594900D01*
X57718985Y-106455519D01*
X57837519Y-106336985D01*
X57976900Y-106243853D01*
X58131772Y-106179703D01*
X58296184Y-106147000D01*
X58463816Y-106147000D01*
X58628228Y-106179703D01*
X58628228Y-106179703D01*
G37*
G36*
X71328228Y-106179703D02*
G01*
X71483100Y-106243853D01*
X71622481Y-106336985D01*
X71741015Y-106455519D01*
X71834147Y-106594900D01*
X71898297Y-106749772D01*
X71931000Y-106914184D01*
X71931000Y-107081816D01*
X71898297Y-107246228D01*
X71834147Y-107401100D01*
X71741015Y-107540481D01*
X71622481Y-107659015D01*
X71483100Y-107752147D01*
X71328228Y-107816297D01*
X71163816Y-107849000D01*
X70996184Y-107849000D01*
X70831772Y-107816297D01*
X70676900Y-107752147D01*
X70537519Y-107659015D01*
X70418985Y-107540481D01*
X70325853Y-107401100D01*
X70261703Y-107246228D01*
X70229000Y-107081816D01*
X70229000Y-106914184D01*
X70261703Y-106749772D01*
X70325853Y-106594900D01*
X70418985Y-106455519D01*
X70537519Y-106336985D01*
X70676900Y-106243853D01*
X70831772Y-106179703D01*
X70996184Y-106147000D01*
X71163816Y-106147000D01*
X71328228Y-106179703D01*
X71328228Y-106179703D01*
G37*
G36*
X95128228Y-103841703D02*
G01*
X95283100Y-103905853D01*
X95422481Y-103998985D01*
X95541015Y-104117519D01*
X95634147Y-104256900D01*
X95698297Y-104411772D01*
X95731000Y-104576184D01*
X95731000Y-104743816D01*
X95698297Y-104908228D01*
X95634147Y-105063100D01*
X95541015Y-105202481D01*
X95422481Y-105321015D01*
X95283100Y-105414147D01*
X95128228Y-105478297D01*
X94963816Y-105511000D01*
X94796184Y-105511000D01*
X94631772Y-105478297D01*
X94476900Y-105414147D01*
X94337519Y-105321015D01*
X94218985Y-105202481D01*
X94125853Y-105063100D01*
X94061703Y-104908228D01*
X94029000Y-104743816D01*
X94029000Y-104576184D01*
X94061703Y-104411772D01*
X94125853Y-104256900D01*
X94218985Y-104117519D01*
X94337519Y-103998985D01*
X94476900Y-103905853D01*
X94631772Y-103841703D01*
X94796184Y-103809000D01*
X94963816Y-103809000D01*
X95128228Y-103841703D01*
X95128228Y-103841703D01*
G37*
G36*
X117988228Y-103841703D02*
G01*
X118143100Y-103905853D01*
X118282481Y-103998985D01*
X118401015Y-104117519D01*
X118494147Y-104256900D01*
X118558297Y-104411772D01*
X118591000Y-104576184D01*
X118591000Y-104743816D01*
X118558297Y-104908228D01*
X118494147Y-105063100D01*
X118401015Y-105202481D01*
X118282481Y-105321015D01*
X118143100Y-105414147D01*
X117988228Y-105478297D01*
X117823816Y-105511000D01*
X117656184Y-105511000D01*
X117491772Y-105478297D01*
X117336900Y-105414147D01*
X117197519Y-105321015D01*
X117078985Y-105202481D01*
X116985853Y-105063100D01*
X116921703Y-104908228D01*
X116889000Y-104743816D01*
X116889000Y-104576184D01*
X116921703Y-104411772D01*
X116985853Y-104256900D01*
X117078985Y-104117519D01*
X117197519Y-103998985D01*
X117336900Y-103905853D01*
X117491772Y-103841703D01*
X117656184Y-103809000D01*
X117823816Y-103809000D01*
X117988228Y-103841703D01*
X117988228Y-103841703D01*
G37*
G36*
X71328228Y-103639703D02*
G01*
X71483100Y-103703853D01*
X71622481Y-103796985D01*
X71741015Y-103915519D01*
X71834147Y-104054900D01*
X71898297Y-104209772D01*
X71931000Y-104374184D01*
X71931000Y-104541816D01*
X71898297Y-104706228D01*
X71834147Y-104861100D01*
X71741015Y-105000481D01*
X71622481Y-105119015D01*
X71483100Y-105212147D01*
X71328228Y-105276297D01*
X71163816Y-105309000D01*
X70996184Y-105309000D01*
X70831772Y-105276297D01*
X70676900Y-105212147D01*
X70537519Y-105119015D01*
X70418985Y-105000481D01*
X70325853Y-104861100D01*
X70261703Y-104706228D01*
X70229000Y-104541816D01*
X70229000Y-104374184D01*
X70261703Y-104209772D01*
X70325853Y-104054900D01*
X70418985Y-103915519D01*
X70537519Y-103796985D01*
X70676900Y-103703853D01*
X70831772Y-103639703D01*
X70996184Y-103607000D01*
X71163816Y-103607000D01*
X71328228Y-103639703D01*
X71328228Y-103639703D01*
G37*
G36*
X58628228Y-103639703D02*
G01*
X58783100Y-103703853D01*
X58922481Y-103796985D01*
X59041015Y-103915519D01*
X59134147Y-104054900D01*
X59198297Y-104209772D01*
X59231000Y-104374184D01*
X59231000Y-104541816D01*
X59198297Y-104706228D01*
X59134147Y-104861100D01*
X59041015Y-105000481D01*
X58922481Y-105119015D01*
X58783100Y-105212147D01*
X58628228Y-105276297D01*
X58463816Y-105309000D01*
X58296184Y-105309000D01*
X58131772Y-105276297D01*
X57976900Y-105212147D01*
X57837519Y-105119015D01*
X57718985Y-105000481D01*
X57625853Y-104861100D01*
X57561703Y-104706228D01*
X57529000Y-104541816D01*
X57529000Y-104374184D01*
X57561703Y-104209772D01*
X57625853Y-104054900D01*
X57718985Y-103915519D01*
X57837519Y-103796985D01*
X57976900Y-103703853D01*
X58131772Y-103639703D01*
X58296184Y-103607000D01*
X58463816Y-103607000D01*
X58628228Y-103639703D01*
X58628228Y-103639703D01*
G37*
G36*
X51793023Y-101514900D02*
G01*
X51952410Y-101546604D01*
X52234674Y-101663521D01*
X52488705Y-101833259D01*
X52704741Y-102049295D01*
X52874479Y-102303326D01*
X52991396Y-102585590D01*
X53008613Y-102672147D01*
X53048794Y-102874147D01*
X53051000Y-102885240D01*
X53051000Y-103190760D01*
X52991396Y-103490410D01*
X52874479Y-103772674D01*
X52704741Y-104026705D01*
X52488705Y-104242741D01*
X52234674Y-104412479D01*
X51952410Y-104529396D01*
X51889975Y-104541815D01*
X51652761Y-104589000D01*
X51347239Y-104589000D01*
X51110025Y-104541815D01*
X51047590Y-104529396D01*
X50765326Y-104412479D01*
X50511295Y-104242741D01*
X50295259Y-104026705D01*
X50125521Y-103772674D01*
X50008604Y-103490410D01*
X49949000Y-103190760D01*
X49949000Y-102885240D01*
X49951207Y-102874147D01*
X49991387Y-102672147D01*
X50008604Y-102585590D01*
X50125521Y-102303326D01*
X50295259Y-102049295D01*
X50511295Y-101833259D01*
X50765326Y-101663521D01*
X51047590Y-101546604D01*
X51206977Y-101514900D01*
X51347239Y-101487000D01*
X51652761Y-101487000D01*
X51793023Y-101514900D01*
X51793023Y-101514900D01*
G37*
G36*
X95128228Y-101301703D02*
G01*
X95283100Y-101365853D01*
X95422481Y-101458985D01*
X95541015Y-101577519D01*
X95634147Y-101716900D01*
X95698297Y-101871772D01*
X95731000Y-102036184D01*
X95731000Y-102203816D01*
X95698297Y-102368228D01*
X95634147Y-102523100D01*
X95541015Y-102662481D01*
X95422481Y-102781015D01*
X95283100Y-102874147D01*
X95128228Y-102938297D01*
X94963816Y-102971000D01*
X94796184Y-102971000D01*
X94631772Y-102938297D01*
X94476900Y-102874147D01*
X94337519Y-102781015D01*
X94218985Y-102662481D01*
X94125853Y-102523100D01*
X94061703Y-102368228D01*
X94029000Y-102203816D01*
X94029000Y-102036184D01*
X94061703Y-101871772D01*
X94125853Y-101716900D01*
X94218985Y-101577519D01*
X94337519Y-101458985D01*
X94476900Y-101365853D01*
X94631772Y-101301703D01*
X94796184Y-101269000D01*
X94963816Y-101269000D01*
X95128228Y-101301703D01*
X95128228Y-101301703D01*
G37*
G36*
X117988228Y-101301703D02*
G01*
X118143100Y-101365853D01*
X118282481Y-101458985D01*
X118401015Y-101577519D01*
X118494147Y-101716900D01*
X118558297Y-101871772D01*
X118591000Y-102036184D01*
X118591000Y-102203816D01*
X118558297Y-102368228D01*
X118494147Y-102523100D01*
X118401015Y-102662481D01*
X118282481Y-102781015D01*
X118143100Y-102874147D01*
X117988228Y-102938297D01*
X117823816Y-102971000D01*
X117656184Y-102971000D01*
X117491772Y-102938297D01*
X117336900Y-102874147D01*
X117197519Y-102781015D01*
X117078985Y-102662481D01*
X116985853Y-102523100D01*
X116921703Y-102368228D01*
X116889000Y-102203816D01*
X116889000Y-102036184D01*
X116921703Y-101871772D01*
X116985853Y-101716900D01*
X117078985Y-101577519D01*
X117197519Y-101458985D01*
X117336900Y-101365853D01*
X117491772Y-101301703D01*
X117656184Y-101269000D01*
X117823816Y-101269000D01*
X117988228Y-101301703D01*
X117988228Y-101301703D01*
G37*
G36*
X58628228Y-101099703D02*
G01*
X58783100Y-101163853D01*
X58922481Y-101256985D01*
X59041015Y-101375519D01*
X59134147Y-101514900D01*
X59198297Y-101669772D01*
X59231000Y-101834184D01*
X59231000Y-102001816D01*
X59198297Y-102166228D01*
X59134147Y-102321100D01*
X59041015Y-102460481D01*
X58922481Y-102579015D01*
X58783100Y-102672147D01*
X58628228Y-102736297D01*
X58463816Y-102769000D01*
X58296184Y-102769000D01*
X58131772Y-102736297D01*
X57976900Y-102672147D01*
X57837519Y-102579015D01*
X57718985Y-102460481D01*
X57625853Y-102321100D01*
X57561703Y-102166228D01*
X57529000Y-102001816D01*
X57529000Y-101834184D01*
X57561703Y-101669772D01*
X57625853Y-101514900D01*
X57718985Y-101375519D01*
X57837519Y-101256985D01*
X57976900Y-101163853D01*
X58131772Y-101099703D01*
X58296184Y-101067000D01*
X58463816Y-101067000D01*
X58628228Y-101099703D01*
X58628228Y-101099703D01*
G37*
G36*
X71328228Y-101099703D02*
G01*
X71483100Y-101163853D01*
X71622481Y-101256985D01*
X71741015Y-101375519D01*
X71834147Y-101514900D01*
X71898297Y-101669772D01*
X71931000Y-101834184D01*
X71931000Y-102001816D01*
X71898297Y-102166228D01*
X71834147Y-102321100D01*
X71741015Y-102460481D01*
X71622481Y-102579015D01*
X71483100Y-102672147D01*
X71328228Y-102736297D01*
X71163816Y-102769000D01*
X70996184Y-102769000D01*
X70831772Y-102736297D01*
X70676900Y-102672147D01*
X70537519Y-102579015D01*
X70418985Y-102460481D01*
X70325853Y-102321100D01*
X70261703Y-102166228D01*
X70229000Y-102001816D01*
X70229000Y-101834184D01*
X70261703Y-101669772D01*
X70325853Y-101514900D01*
X70418985Y-101375519D01*
X70537519Y-101256985D01*
X70676900Y-101163853D01*
X70831772Y-101099703D01*
X70996184Y-101067000D01*
X71163816Y-101067000D01*
X71328228Y-101099703D01*
X71328228Y-101099703D01*
G37*
G36*
X117988228Y-98761703D02*
G01*
X118143100Y-98825853D01*
X118282481Y-98918985D01*
X118401015Y-99037519D01*
X118494147Y-99176900D01*
X118558297Y-99331772D01*
X118591000Y-99496184D01*
X118591000Y-99663816D01*
X118558297Y-99828228D01*
X118494147Y-99983100D01*
X118401015Y-100122481D01*
X118282481Y-100241015D01*
X118143100Y-100334147D01*
X117988228Y-100398297D01*
X117823816Y-100431000D01*
X117656184Y-100431000D01*
X117491772Y-100398297D01*
X117336900Y-100334147D01*
X117197519Y-100241015D01*
X117078985Y-100122481D01*
X116985853Y-99983100D01*
X116921703Y-99828228D01*
X116889000Y-99663816D01*
X116889000Y-99496184D01*
X116921703Y-99331772D01*
X116985853Y-99176900D01*
X117078985Y-99037519D01*
X117197519Y-98918985D01*
X117336900Y-98825853D01*
X117491772Y-98761703D01*
X117656184Y-98729000D01*
X117823816Y-98729000D01*
X117988228Y-98761703D01*
X117988228Y-98761703D01*
G37*
G36*
X95128228Y-98761703D02*
G01*
X95283100Y-98825853D01*
X95422481Y-98918985D01*
X95541015Y-99037519D01*
X95634147Y-99176900D01*
X95698297Y-99331772D01*
X95731000Y-99496184D01*
X95731000Y-99663816D01*
X95698297Y-99828228D01*
X95634147Y-99983100D01*
X95541015Y-100122481D01*
X95422481Y-100241015D01*
X95283100Y-100334147D01*
X95128228Y-100398297D01*
X94963816Y-100431000D01*
X94796184Y-100431000D01*
X94631772Y-100398297D01*
X94476900Y-100334147D01*
X94337519Y-100241015D01*
X94218985Y-100122481D01*
X94125853Y-99983100D01*
X94061703Y-99828228D01*
X94029000Y-99663816D01*
X94029000Y-99496184D01*
X94061703Y-99331772D01*
X94125853Y-99176900D01*
X94218985Y-99037519D01*
X94337519Y-98918985D01*
X94476900Y-98825853D01*
X94631772Y-98761703D01*
X94796184Y-98729000D01*
X94963816Y-98729000D01*
X95128228Y-98761703D01*
X95128228Y-98761703D01*
G37*
G36*
X71328228Y-98559703D02*
G01*
X71483100Y-98623853D01*
X71622481Y-98716985D01*
X71741015Y-98835519D01*
X71834147Y-98974900D01*
X71898297Y-99129772D01*
X71931000Y-99294184D01*
X71931000Y-99461816D01*
X71898297Y-99626228D01*
X71834147Y-99781100D01*
X71741015Y-99920481D01*
X71622481Y-100039015D01*
X71483100Y-100132147D01*
X71328228Y-100196297D01*
X71163816Y-100229000D01*
X70996184Y-100229000D01*
X70831772Y-100196297D01*
X70676900Y-100132147D01*
X70537519Y-100039015D01*
X70418985Y-99920481D01*
X70325853Y-99781100D01*
X70261703Y-99626228D01*
X70229000Y-99461816D01*
X70229000Y-99294184D01*
X70261703Y-99129772D01*
X70325853Y-98974900D01*
X70418985Y-98835519D01*
X70537519Y-98716985D01*
X70676900Y-98623853D01*
X70831772Y-98559703D01*
X70996184Y-98527000D01*
X71163816Y-98527000D01*
X71328228Y-98559703D01*
X71328228Y-98559703D01*
G37*
G36*
X58628228Y-98559703D02*
G01*
X58783100Y-98623853D01*
X58922481Y-98716985D01*
X59041015Y-98835519D01*
X59134147Y-98974900D01*
X59198297Y-99129772D01*
X59231000Y-99294184D01*
X59231000Y-99461816D01*
X59198297Y-99626228D01*
X59134147Y-99781100D01*
X59041015Y-99920481D01*
X58922481Y-100039015D01*
X58783100Y-100132147D01*
X58628228Y-100196297D01*
X58463816Y-100229000D01*
X58296184Y-100229000D01*
X58131772Y-100196297D01*
X57976900Y-100132147D01*
X57837519Y-100039015D01*
X57718985Y-99920481D01*
X57625853Y-99781100D01*
X57561703Y-99626228D01*
X57529000Y-99461816D01*
X57529000Y-99294184D01*
X57561703Y-99129772D01*
X57625853Y-98974900D01*
X57718985Y-98835519D01*
X57837519Y-98716985D01*
X57976900Y-98623853D01*
X58131772Y-98559703D01*
X58296184Y-98527000D01*
X58463816Y-98527000D01*
X58628228Y-98559703D01*
X58628228Y-98559703D01*
G37*
G36*
X51793023Y-96434900D02*
G01*
X51952410Y-96466604D01*
X52234674Y-96583521D01*
X52488705Y-96753259D01*
X52704741Y-96969295D01*
X52874479Y-97223326D01*
X52991396Y-97505590D01*
X52991396Y-97505591D01*
X53027879Y-97689000D01*
X53051000Y-97805240D01*
X53051000Y-98110760D01*
X52991396Y-98410410D01*
X52874479Y-98692674D01*
X52704741Y-98946705D01*
X52488705Y-99162741D01*
X52234674Y-99332479D01*
X51952410Y-99449396D01*
X51889975Y-99461815D01*
X51652761Y-99509000D01*
X51347239Y-99509000D01*
X51110025Y-99461815D01*
X51047590Y-99449396D01*
X50765326Y-99332479D01*
X50511295Y-99162741D01*
X50295259Y-98946705D01*
X50125521Y-98692674D01*
X50008604Y-98410410D01*
X49949000Y-98110760D01*
X49949000Y-97805240D01*
X49972122Y-97689000D01*
X50008604Y-97505591D01*
X50008604Y-97505590D01*
X50125521Y-97223326D01*
X50295259Y-96969295D01*
X50511295Y-96753259D01*
X50765326Y-96583521D01*
X51047590Y-96466604D01*
X51206977Y-96434900D01*
X51347239Y-96407000D01*
X51652761Y-96407000D01*
X51793023Y-96434900D01*
X51793023Y-96434900D01*
G37*
G36*
X71328228Y-96019703D02*
G01*
X71483100Y-96083853D01*
X71622481Y-96176985D01*
X71741015Y-96295519D01*
X71834147Y-96434900D01*
X71898297Y-96589772D01*
X71931000Y-96754184D01*
X71931000Y-96921816D01*
X71898297Y-97086228D01*
X71834147Y-97241100D01*
X71741015Y-97380481D01*
X71622481Y-97499015D01*
X71483100Y-97592147D01*
X71328228Y-97656297D01*
X71163816Y-97689000D01*
X70996184Y-97689000D01*
X70831772Y-97656297D01*
X70676900Y-97592147D01*
X70537519Y-97499015D01*
X70418985Y-97380481D01*
X70325853Y-97241100D01*
X70261703Y-97086228D01*
X70229000Y-96921816D01*
X70229000Y-96754184D01*
X70261703Y-96589772D01*
X70325853Y-96434900D01*
X70418985Y-96295519D01*
X70537519Y-96176985D01*
X70676900Y-96083853D01*
X70831772Y-96019703D01*
X70996184Y-95987000D01*
X71163816Y-95987000D01*
X71328228Y-96019703D01*
X71328228Y-96019703D01*
G37*
G36*
X58628228Y-96019703D02*
G01*
X58783100Y-96083853D01*
X58922481Y-96176985D01*
X59041015Y-96295519D01*
X59134147Y-96434900D01*
X59198297Y-96589772D01*
X59231000Y-96754184D01*
X59231000Y-96921816D01*
X59198297Y-97086228D01*
X59134147Y-97241100D01*
X59041015Y-97380481D01*
X58922481Y-97499015D01*
X58783100Y-97592147D01*
X58628228Y-97656297D01*
X58463816Y-97689000D01*
X58296184Y-97689000D01*
X58131772Y-97656297D01*
X57976900Y-97592147D01*
X57837519Y-97499015D01*
X57718985Y-97380481D01*
X57625853Y-97241100D01*
X57561703Y-97086228D01*
X57529000Y-96921816D01*
X57529000Y-96754184D01*
X57561703Y-96589772D01*
X57625853Y-96434900D01*
X57718985Y-96295519D01*
X57837519Y-96176985D01*
X57976900Y-96083853D01*
X58131772Y-96019703D01*
X58296184Y-95987000D01*
X58463816Y-95987000D01*
X58628228Y-96019703D01*
X58628228Y-96019703D01*
G37*
G36*
X66248228Y-96019703D02*
G01*
X66403100Y-96083853D01*
X66542481Y-96176985D01*
X66661015Y-96295519D01*
X66754147Y-96434900D01*
X66818297Y-96589772D01*
X66851000Y-96754184D01*
X66851000Y-96921816D01*
X66818297Y-97086228D01*
X66754147Y-97241100D01*
X66661015Y-97380481D01*
X66542481Y-97499015D01*
X66403100Y-97592147D01*
X66248228Y-97656297D01*
X66083816Y-97689000D01*
X65916184Y-97689000D01*
X65751772Y-97656297D01*
X65596900Y-97592147D01*
X65457519Y-97499015D01*
X65338985Y-97380481D01*
X65245853Y-97241100D01*
X65181703Y-97086228D01*
X65149000Y-96921816D01*
X65149000Y-96754184D01*
X65181703Y-96589772D01*
X65245853Y-96434900D01*
X65338985Y-96295519D01*
X65457519Y-96176985D01*
X65596900Y-96083853D01*
X65751772Y-96019703D01*
X65916184Y-95987000D01*
X66083816Y-95987000D01*
X66248228Y-96019703D01*
X66248228Y-96019703D01*
G37*
G36*
X68788228Y-96019703D02*
G01*
X68943100Y-96083853D01*
X69082481Y-96176985D01*
X69201015Y-96295519D01*
X69294147Y-96434900D01*
X69358297Y-96589772D01*
X69391000Y-96754184D01*
X69391000Y-96921816D01*
X69358297Y-97086228D01*
X69294147Y-97241100D01*
X69201015Y-97380481D01*
X69082481Y-97499015D01*
X68943100Y-97592147D01*
X68788228Y-97656297D01*
X68623816Y-97689000D01*
X68456184Y-97689000D01*
X68291772Y-97656297D01*
X68136900Y-97592147D01*
X67997519Y-97499015D01*
X67878985Y-97380481D01*
X67785853Y-97241100D01*
X67721703Y-97086228D01*
X67689000Y-96921816D01*
X67689000Y-96754184D01*
X67721703Y-96589772D01*
X67785853Y-96434900D01*
X67878985Y-96295519D01*
X67997519Y-96176985D01*
X68136900Y-96083853D01*
X68291772Y-96019703D01*
X68456184Y-95987000D01*
X68623816Y-95987000D01*
X68788228Y-96019703D01*
X68788228Y-96019703D01*
G37*
G36*
X144051000Y-93813000D02*
G01*
X140949000Y-93813000D01*
X140949000Y-90711000D01*
X144051000Y-90711000D01*
X144051000Y-93813000D01*
X144051000Y-93813000D01*
G37*
G36*
X123310072Y-88962918D02*
G01*
X123555939Y-89064759D01*
X123667328Y-89139187D01*
X123777211Y-89212609D01*
X123965391Y-89400789D01*
X124113242Y-89622063D01*
X124215082Y-89867928D01*
X124232797Y-89956985D01*
X124267000Y-90128938D01*
X124267000Y-90395062D01*
X124215082Y-90656072D01*
X124113241Y-90901939D01*
X123965390Y-91123212D01*
X123777212Y-91311390D01*
X123555939Y-91459241D01*
X123555938Y-91459242D01*
X123555937Y-91459242D01*
X123310072Y-91561082D01*
X123049063Y-91613000D01*
X122782937Y-91613000D01*
X122521928Y-91561082D01*
X122276063Y-91459242D01*
X122276062Y-91459242D01*
X122276061Y-91459241D01*
X122054788Y-91311390D01*
X121866610Y-91123212D01*
X121718759Y-90901939D01*
X121616918Y-90656072D01*
X121565000Y-90395062D01*
X121565000Y-90128938D01*
X121599204Y-89956985D01*
X121616918Y-89867928D01*
X121718758Y-89622063D01*
X121866609Y-89400789D01*
X122054789Y-89212609D01*
X122164672Y-89139187D01*
X122276061Y-89064759D01*
X122521928Y-88962918D01*
X122782937Y-88911000D01*
X123049063Y-88911000D01*
X123310072Y-88962918D01*
X123310072Y-88962918D01*
G37*
G36*
X135310072Y-88962918D02*
G01*
X135555939Y-89064759D01*
X135667328Y-89139187D01*
X135777211Y-89212609D01*
X135965391Y-89400789D01*
X136113242Y-89622063D01*
X136215082Y-89867928D01*
X136232797Y-89956985D01*
X136267000Y-90128938D01*
X136267000Y-90395062D01*
X136215082Y-90656072D01*
X136113241Y-90901939D01*
X135965390Y-91123212D01*
X135777212Y-91311390D01*
X135555939Y-91459241D01*
X135555938Y-91459242D01*
X135555937Y-91459242D01*
X135310072Y-91561082D01*
X135049063Y-91613000D01*
X134782937Y-91613000D01*
X134521928Y-91561082D01*
X134276063Y-91459242D01*
X134276062Y-91459242D01*
X134276061Y-91459241D01*
X134054788Y-91311390D01*
X133866610Y-91123212D01*
X133718759Y-90901939D01*
X133616918Y-90656072D01*
X133565000Y-90395062D01*
X133565000Y-90128938D01*
X133599204Y-89956985D01*
X133616918Y-89867928D01*
X133718758Y-89622063D01*
X133866609Y-89400789D01*
X134054789Y-89212609D01*
X134164672Y-89139187D01*
X134276061Y-89064759D01*
X134521928Y-88962918D01*
X134782937Y-88911000D01*
X135049063Y-88911000D01*
X135310072Y-88962918D01*
X135310072Y-88962918D01*
G37*
G36*
X58628228Y-89799703D02*
G01*
X58783100Y-89863853D01*
X58922481Y-89956985D01*
X59041015Y-90075519D01*
X59134147Y-90214900D01*
X59198297Y-90369772D01*
X59231000Y-90534184D01*
X59231000Y-90701816D01*
X59198297Y-90866228D01*
X59134147Y-91021100D01*
X59041015Y-91160481D01*
X58922481Y-91279015D01*
X58783100Y-91372147D01*
X58628228Y-91436297D01*
X58463816Y-91469000D01*
X58296184Y-91469000D01*
X58131772Y-91436297D01*
X57976900Y-91372147D01*
X57837519Y-91279015D01*
X57718985Y-91160481D01*
X57625853Y-91021100D01*
X57561703Y-90866228D01*
X57529000Y-90701816D01*
X57529000Y-90534184D01*
X57561703Y-90369772D01*
X57625853Y-90214900D01*
X57718985Y-90075519D01*
X57837519Y-89956985D01*
X57976900Y-89863853D01*
X58131772Y-89799703D01*
X58296184Y-89767000D01*
X58463816Y-89767000D01*
X58628228Y-89799703D01*
X58628228Y-89799703D01*
G37*
G36*
X71328228Y-89799703D02*
G01*
X71483100Y-89863853D01*
X71622481Y-89956985D01*
X71741015Y-90075519D01*
X71834147Y-90214900D01*
X71898297Y-90369772D01*
X71931000Y-90534184D01*
X71931000Y-90701816D01*
X71898297Y-90866228D01*
X71834147Y-91021100D01*
X71741015Y-91160481D01*
X71622481Y-91279015D01*
X71483100Y-91372147D01*
X71328228Y-91436297D01*
X71163816Y-91469000D01*
X70996184Y-91469000D01*
X70831772Y-91436297D01*
X70676900Y-91372147D01*
X70537519Y-91279015D01*
X70418985Y-91160481D01*
X70325853Y-91021100D01*
X70261703Y-90866228D01*
X70229000Y-90701816D01*
X70229000Y-90534184D01*
X70261703Y-90369772D01*
X70325853Y-90214900D01*
X70418985Y-90075519D01*
X70537519Y-89956985D01*
X70676900Y-89863853D01*
X70831772Y-89799703D01*
X70996184Y-89767000D01*
X71163816Y-89767000D01*
X71328228Y-89799703D01*
X71328228Y-89799703D01*
G37*
G36*
X53051000Y-90749000D02*
G01*
X49949000Y-90749000D01*
X49949000Y-87647000D01*
X53051000Y-87647000D01*
X53051000Y-90749000D01*
X53051000Y-90749000D01*
G37*
G36*
X71328228Y-87259703D02*
G01*
X71483100Y-87323853D01*
X71622481Y-87416985D01*
X71741015Y-87535519D01*
X71834147Y-87674900D01*
X71898297Y-87829772D01*
X71931000Y-87994184D01*
X71931000Y-88161816D01*
X71898297Y-88326228D01*
X71834147Y-88481100D01*
X71741015Y-88620481D01*
X71622481Y-88739015D01*
X71483100Y-88832147D01*
X71328228Y-88896297D01*
X71163816Y-88929000D01*
X70996184Y-88929000D01*
X70831772Y-88896297D01*
X70676900Y-88832147D01*
X70537519Y-88739015D01*
X70418985Y-88620481D01*
X70325853Y-88481100D01*
X70261703Y-88326228D01*
X70229000Y-88161816D01*
X70229000Y-87994184D01*
X70261703Y-87829772D01*
X70325853Y-87674900D01*
X70418985Y-87535519D01*
X70537519Y-87416985D01*
X70676900Y-87323853D01*
X70831772Y-87259703D01*
X70996184Y-87227000D01*
X71163816Y-87227000D01*
X71328228Y-87259703D01*
X71328228Y-87259703D01*
G37*
G36*
X58628228Y-87259703D02*
G01*
X58783100Y-87323853D01*
X58922481Y-87416985D01*
X59041015Y-87535519D01*
X59134147Y-87674900D01*
X59198297Y-87829772D01*
X59231000Y-87994184D01*
X59231000Y-88161816D01*
X59198297Y-88326228D01*
X59134147Y-88481100D01*
X59041015Y-88620481D01*
X58922481Y-88739015D01*
X58783100Y-88832147D01*
X58628228Y-88896297D01*
X58463816Y-88929000D01*
X58296184Y-88929000D01*
X58131772Y-88896297D01*
X57976900Y-88832147D01*
X57837519Y-88739015D01*
X57718985Y-88620481D01*
X57625853Y-88481100D01*
X57561703Y-88326228D01*
X57529000Y-88161816D01*
X57529000Y-87994184D01*
X57561703Y-87829772D01*
X57625853Y-87674900D01*
X57718985Y-87535519D01*
X57837519Y-87416985D01*
X57976900Y-87323853D01*
X58131772Y-87259703D01*
X58296184Y-87227000D01*
X58463816Y-87227000D01*
X58628228Y-87259703D01*
X58628228Y-87259703D01*
G37*
G36*
X142802585Y-85660802D02*
G01*
X142952410Y-85690604D01*
X143234674Y-85807521D01*
X143488705Y-85977259D01*
X143704741Y-86193295D01*
X143874479Y-86447326D01*
X143991396Y-86729590D01*
X143991396Y-86729591D01*
X144051000Y-87029239D01*
X144051000Y-87334761D01*
X144021198Y-87484585D01*
X143991396Y-87634410D01*
X143874479Y-87916674D01*
X143704741Y-88170705D01*
X143488705Y-88386741D01*
X143234674Y-88556479D01*
X142952410Y-88673396D01*
X142802585Y-88703198D01*
X142652761Y-88733000D01*
X142347239Y-88733000D01*
X142197415Y-88703198D01*
X142047590Y-88673396D01*
X141765326Y-88556479D01*
X141511295Y-88386741D01*
X141295259Y-88170705D01*
X141125521Y-87916674D01*
X141008604Y-87634410D01*
X140978802Y-87484585D01*
X140949000Y-87334761D01*
X140949000Y-87029239D01*
X141008604Y-86729591D01*
X141008604Y-86729590D01*
X141125521Y-86447326D01*
X141295259Y-86193295D01*
X141511295Y-85977259D01*
X141765326Y-85807521D01*
X142047590Y-85690604D01*
X142197415Y-85660802D01*
X142347239Y-85631000D01*
X142652761Y-85631000D01*
X142802585Y-85660802D01*
X142802585Y-85660802D01*
G37*
G36*
X98451564Y-84844389D02*
G01*
X98642833Y-84923615D01*
X98642835Y-84923616D01*
X98814973Y-85038635D01*
X98961365Y-85185027D01*
X99053383Y-85322741D01*
X99076385Y-85357167D01*
X99155611Y-85548436D01*
X99196000Y-85751484D01*
X99196000Y-85958516D01*
X99155611Y-86161564D01*
X99142467Y-86193296D01*
X99076384Y-86352835D01*
X98961365Y-86524973D01*
X98814973Y-86671365D01*
X98642835Y-86786384D01*
X98642834Y-86786385D01*
X98642833Y-86786385D01*
X98451564Y-86865611D01*
X98248516Y-86906000D01*
X98041484Y-86906000D01*
X97838436Y-86865611D01*
X97647167Y-86786385D01*
X97647166Y-86786385D01*
X97647165Y-86786384D01*
X97475027Y-86671365D01*
X97328635Y-86524973D01*
X97213616Y-86352835D01*
X97147533Y-86193296D01*
X97134389Y-86161564D01*
X97094000Y-85958516D01*
X97094000Y-85751484D01*
X97134389Y-85548436D01*
X97213615Y-85357167D01*
X97236618Y-85322741D01*
X97328635Y-85185027D01*
X97475027Y-85038635D01*
X97647165Y-84923616D01*
X97647167Y-84923615D01*
X97838436Y-84844389D01*
X98041484Y-84804000D01*
X98248516Y-84804000D01*
X98451564Y-84844389D01*
X98451564Y-84844389D01*
G37*
G36*
X113691564Y-84844389D02*
G01*
X113882833Y-84923615D01*
X113882835Y-84923616D01*
X114054973Y-85038635D01*
X114201365Y-85185027D01*
X114293383Y-85322741D01*
X114316385Y-85357167D01*
X114395611Y-85548436D01*
X114436000Y-85751484D01*
X114436000Y-85958516D01*
X114395611Y-86161564D01*
X114382467Y-86193296D01*
X114316384Y-86352835D01*
X114201365Y-86524973D01*
X114054973Y-86671365D01*
X113882835Y-86786384D01*
X113882834Y-86786385D01*
X113882833Y-86786385D01*
X113691564Y-86865611D01*
X113488516Y-86906000D01*
X113281484Y-86906000D01*
X113078436Y-86865611D01*
X112887167Y-86786385D01*
X112887166Y-86786385D01*
X112887165Y-86786384D01*
X112715027Y-86671365D01*
X112568635Y-86524973D01*
X112453616Y-86352835D01*
X112387533Y-86193296D01*
X112374389Y-86161564D01*
X112334000Y-85958516D01*
X112334000Y-85751484D01*
X112374389Y-85548436D01*
X112453615Y-85357167D01*
X112476618Y-85322741D01*
X112568635Y-85185027D01*
X112715027Y-85038635D01*
X112887165Y-84923616D01*
X112887167Y-84923615D01*
X113078436Y-84844389D01*
X113281484Y-84804000D01*
X113488516Y-84804000D01*
X113691564Y-84844389D01*
X113691564Y-84844389D01*
G37*
G36*
X71328228Y-84719703D02*
G01*
X71483100Y-84783853D01*
X71622481Y-84876985D01*
X71741015Y-84995519D01*
X71834147Y-85134900D01*
X71898297Y-85289772D01*
X71931000Y-85454184D01*
X71931000Y-85621816D01*
X71898297Y-85786228D01*
X71834147Y-85941100D01*
X71741015Y-86080481D01*
X71622481Y-86199015D01*
X71483100Y-86292147D01*
X71328228Y-86356297D01*
X71163816Y-86389000D01*
X70996184Y-86389000D01*
X70831772Y-86356297D01*
X70676900Y-86292147D01*
X70537519Y-86199015D01*
X70418985Y-86080481D01*
X70325853Y-85941100D01*
X70261703Y-85786228D01*
X70229000Y-85621816D01*
X70229000Y-85454184D01*
X70261703Y-85289772D01*
X70325853Y-85134900D01*
X70418985Y-84995519D01*
X70537519Y-84876985D01*
X70676900Y-84783853D01*
X70831772Y-84719703D01*
X70996184Y-84687000D01*
X71163816Y-84687000D01*
X71328228Y-84719703D01*
X71328228Y-84719703D01*
G37*
G36*
X58628228Y-84719703D02*
G01*
X58783100Y-84783853D01*
X58922481Y-84876985D01*
X59041015Y-84995519D01*
X59134147Y-85134900D01*
X59198297Y-85289772D01*
X59231000Y-85454184D01*
X59231000Y-85621816D01*
X59198297Y-85786228D01*
X59134147Y-85941100D01*
X59041015Y-86080481D01*
X58922481Y-86199015D01*
X58783100Y-86292147D01*
X58628228Y-86356297D01*
X58463816Y-86389000D01*
X58296184Y-86389000D01*
X58131772Y-86356297D01*
X57976900Y-86292147D01*
X57837519Y-86199015D01*
X57718985Y-86080481D01*
X57625853Y-85941100D01*
X57561703Y-85786228D01*
X57529000Y-85621816D01*
X57529000Y-85454184D01*
X57561703Y-85289772D01*
X57625853Y-85134900D01*
X57718985Y-84995519D01*
X57837519Y-84876985D01*
X57976900Y-84783853D01*
X58131772Y-84719703D01*
X58296184Y-84687000D01*
X58463816Y-84687000D01*
X58628228Y-84719703D01*
X58628228Y-84719703D01*
G37*
G36*
X51793023Y-82594900D02*
G01*
X51952410Y-82626604D01*
X52234674Y-82743521D01*
X52488705Y-82913259D01*
X52704741Y-83129295D01*
X52874479Y-83383326D01*
X52991396Y-83665590D01*
X52991396Y-83665591D01*
X53027879Y-83849000D01*
X53051000Y-83965240D01*
X53051000Y-84270760D01*
X52991396Y-84570410D01*
X52874479Y-84852674D01*
X52704741Y-85106705D01*
X52488705Y-85322741D01*
X52234674Y-85492479D01*
X51952410Y-85609396D01*
X51889975Y-85621815D01*
X51652761Y-85669000D01*
X51347239Y-85669000D01*
X51110025Y-85621815D01*
X51047590Y-85609396D01*
X50765326Y-85492479D01*
X50511295Y-85322741D01*
X50295259Y-85106705D01*
X50125521Y-84852674D01*
X50008604Y-84570410D01*
X49949000Y-84270760D01*
X49949000Y-83965240D01*
X49972122Y-83849000D01*
X50008604Y-83665591D01*
X50008604Y-83665590D01*
X50125521Y-83383326D01*
X50295259Y-83129295D01*
X50511295Y-82913259D01*
X50765326Y-82743521D01*
X51047590Y-82626604D01*
X51206977Y-82594900D01*
X51347239Y-82567000D01*
X51652761Y-82567000D01*
X51793023Y-82594900D01*
X51793023Y-82594900D01*
G37*
G36*
X71328228Y-82179703D02*
G01*
X71483100Y-82243853D01*
X71622481Y-82336985D01*
X71741015Y-82455519D01*
X71834147Y-82594900D01*
X71898297Y-82749772D01*
X71931000Y-82914184D01*
X71931000Y-83081816D01*
X71898297Y-83246228D01*
X71834147Y-83401100D01*
X71741015Y-83540481D01*
X71622481Y-83659015D01*
X71483100Y-83752147D01*
X71328228Y-83816297D01*
X71163816Y-83849000D01*
X70996184Y-83849000D01*
X70831772Y-83816297D01*
X70676900Y-83752147D01*
X70537519Y-83659015D01*
X70418985Y-83540481D01*
X70325853Y-83401100D01*
X70261703Y-83246228D01*
X70229000Y-83081816D01*
X70229000Y-82914184D01*
X70261703Y-82749772D01*
X70325853Y-82594900D01*
X70418985Y-82455519D01*
X70537519Y-82336985D01*
X70676900Y-82243853D01*
X70831772Y-82179703D01*
X70996184Y-82147000D01*
X71163816Y-82147000D01*
X71328228Y-82179703D01*
X71328228Y-82179703D01*
G37*
G36*
X58628228Y-82179703D02*
G01*
X58783100Y-82243853D01*
X58922481Y-82336985D01*
X59041015Y-82455519D01*
X59134147Y-82594900D01*
X59198297Y-82749772D01*
X59231000Y-82914184D01*
X59231000Y-83081816D01*
X59198297Y-83246228D01*
X59134147Y-83401100D01*
X59041015Y-83540481D01*
X58922481Y-83659015D01*
X58783100Y-83752147D01*
X58628228Y-83816297D01*
X58463816Y-83849000D01*
X58296184Y-83849000D01*
X58131772Y-83816297D01*
X57976900Y-83752147D01*
X57837519Y-83659015D01*
X57718985Y-83540481D01*
X57625853Y-83401100D01*
X57561703Y-83246228D01*
X57529000Y-83081816D01*
X57529000Y-82914184D01*
X57561703Y-82749772D01*
X57625853Y-82594900D01*
X57718985Y-82455519D01*
X57837519Y-82336985D01*
X57976900Y-82243853D01*
X58131772Y-82179703D01*
X58296184Y-82147000D01*
X58463816Y-82147000D01*
X58628228Y-82179703D01*
X58628228Y-82179703D01*
G37*
G36*
X142802585Y-80580802D02*
G01*
X142952410Y-80610604D01*
X143234674Y-80727521D01*
X143488705Y-80897259D01*
X143704741Y-81113295D01*
X143874479Y-81367326D01*
X143991396Y-81649590D01*
X143991396Y-81649591D01*
X144051000Y-81949239D01*
X144051000Y-82254761D01*
X144021198Y-82404585D01*
X143991396Y-82554410D01*
X143874479Y-82836674D01*
X143704741Y-83090705D01*
X143488705Y-83306741D01*
X143234674Y-83476479D01*
X142952410Y-83593396D01*
X142802585Y-83623198D01*
X142652761Y-83653000D01*
X142347239Y-83653000D01*
X142197415Y-83623198D01*
X142047590Y-83593396D01*
X141765326Y-83476479D01*
X141511295Y-83306741D01*
X141295259Y-83090705D01*
X141125521Y-82836674D01*
X141008604Y-82554410D01*
X140978802Y-82404585D01*
X140949000Y-82254761D01*
X140949000Y-81949239D01*
X141008604Y-81649591D01*
X141008604Y-81649590D01*
X141125521Y-81367326D01*
X141295259Y-81113295D01*
X141511295Y-80897259D01*
X141765326Y-80727521D01*
X142047590Y-80610604D01*
X142197415Y-80580802D01*
X142347239Y-80551000D01*
X142652761Y-80551000D01*
X142802585Y-80580802D01*
X142802585Y-80580802D01*
G37*
G36*
X113691564Y-79764389D02*
G01*
X113882833Y-79843615D01*
X113882835Y-79843616D01*
X114054973Y-79958635D01*
X114201365Y-80105027D01*
X114293383Y-80242741D01*
X114316385Y-80277167D01*
X114395611Y-80468436D01*
X114436000Y-80671484D01*
X114436000Y-80878516D01*
X114395611Y-81081564D01*
X114382467Y-81113296D01*
X114316384Y-81272835D01*
X114201365Y-81444973D01*
X114054973Y-81591365D01*
X113882835Y-81706384D01*
X113882834Y-81706385D01*
X113882833Y-81706385D01*
X113691564Y-81785611D01*
X113488516Y-81826000D01*
X113281484Y-81826000D01*
X113078436Y-81785611D01*
X112887167Y-81706385D01*
X112887166Y-81706385D01*
X112887165Y-81706384D01*
X112715027Y-81591365D01*
X112568635Y-81444973D01*
X112453616Y-81272835D01*
X112387533Y-81113296D01*
X112374389Y-81081564D01*
X112334000Y-80878516D01*
X112334000Y-80671484D01*
X112374389Y-80468436D01*
X112453615Y-80277167D01*
X112476618Y-80242741D01*
X112568635Y-80105027D01*
X112715027Y-79958635D01*
X112887165Y-79843616D01*
X112887167Y-79843615D01*
X113078436Y-79764389D01*
X113281484Y-79724000D01*
X113488516Y-79724000D01*
X113691564Y-79764389D01*
X113691564Y-79764389D01*
G37*
G36*
X98451564Y-79764389D02*
G01*
X98642833Y-79843615D01*
X98642835Y-79843616D01*
X98814973Y-79958635D01*
X98961365Y-80105027D01*
X99053383Y-80242741D01*
X99076385Y-80277167D01*
X99155611Y-80468436D01*
X99196000Y-80671484D01*
X99196000Y-80878516D01*
X99155611Y-81081564D01*
X99142467Y-81113296D01*
X99076384Y-81272835D01*
X98961365Y-81444973D01*
X98814973Y-81591365D01*
X98642835Y-81706384D01*
X98642834Y-81706385D01*
X98642833Y-81706385D01*
X98451564Y-81785611D01*
X98248516Y-81826000D01*
X98041484Y-81826000D01*
X97838436Y-81785611D01*
X97647167Y-81706385D01*
X97647166Y-81706385D01*
X97647165Y-81706384D01*
X97475027Y-81591365D01*
X97328635Y-81444973D01*
X97213616Y-81272835D01*
X97147533Y-81113296D01*
X97134389Y-81081564D01*
X97094000Y-80878516D01*
X97094000Y-80671484D01*
X97134389Y-80468436D01*
X97213615Y-80277167D01*
X97236618Y-80242741D01*
X97328635Y-80105027D01*
X97475027Y-79958635D01*
X97647165Y-79843616D01*
X97647167Y-79843615D01*
X97838436Y-79764389D01*
X98041484Y-79724000D01*
X98248516Y-79724000D01*
X98451564Y-79764389D01*
X98451564Y-79764389D01*
G37*
G36*
X71328228Y-79639703D02*
G01*
X71483100Y-79703853D01*
X71622481Y-79796985D01*
X71741015Y-79915519D01*
X71834147Y-80054900D01*
X71898297Y-80209772D01*
X71931000Y-80374184D01*
X71931000Y-80541816D01*
X71898297Y-80706228D01*
X71834147Y-80861100D01*
X71741015Y-81000481D01*
X71622481Y-81119015D01*
X71483100Y-81212147D01*
X71328228Y-81276297D01*
X71163816Y-81309000D01*
X70996184Y-81309000D01*
X70831772Y-81276297D01*
X70676900Y-81212147D01*
X70537519Y-81119015D01*
X70418985Y-81000481D01*
X70325853Y-80861100D01*
X70261703Y-80706228D01*
X70229000Y-80541816D01*
X70229000Y-80374184D01*
X70261703Y-80209772D01*
X70325853Y-80054900D01*
X70418985Y-79915519D01*
X70537519Y-79796985D01*
X70676900Y-79703853D01*
X70831772Y-79639703D01*
X70996184Y-79607000D01*
X71163816Y-79607000D01*
X71328228Y-79639703D01*
X71328228Y-79639703D01*
G37*
G36*
X58628228Y-79639703D02*
G01*
X58783100Y-79703853D01*
X58922481Y-79796985D01*
X59041015Y-79915519D01*
X59134147Y-80054900D01*
X59198297Y-80209772D01*
X59231000Y-80374184D01*
X59231000Y-80541816D01*
X59198297Y-80706228D01*
X59134147Y-80861100D01*
X59041015Y-81000481D01*
X58922481Y-81119015D01*
X58783100Y-81212147D01*
X58628228Y-81276297D01*
X58463816Y-81309000D01*
X58296184Y-81309000D01*
X58131772Y-81276297D01*
X57976900Y-81212147D01*
X57837519Y-81119015D01*
X57718985Y-81000481D01*
X57625853Y-80861100D01*
X57561703Y-80706228D01*
X57529000Y-80541816D01*
X57529000Y-80374184D01*
X57561703Y-80209772D01*
X57625853Y-80054900D01*
X57718985Y-79915519D01*
X57837519Y-79796985D01*
X57976900Y-79703853D01*
X58131772Y-79639703D01*
X58296184Y-79607000D01*
X58463816Y-79607000D01*
X58628228Y-79639703D01*
X58628228Y-79639703D01*
G37*
G36*
X51793023Y-77514900D02*
G01*
X51952410Y-77546604D01*
X52234674Y-77663521D01*
X52488705Y-77833259D01*
X52704741Y-78049295D01*
X52874479Y-78303326D01*
X52991396Y-78585590D01*
X52991396Y-78585591D01*
X53027879Y-78769000D01*
X53051000Y-78885240D01*
X53051000Y-79190760D01*
X52991396Y-79490410D01*
X52874479Y-79772674D01*
X52704741Y-80026705D01*
X52488705Y-80242741D01*
X52234674Y-80412479D01*
X51952410Y-80529396D01*
X51889975Y-80541815D01*
X51652761Y-80589000D01*
X51347239Y-80589000D01*
X51110025Y-80541815D01*
X51047590Y-80529396D01*
X50765326Y-80412479D01*
X50511295Y-80242741D01*
X50295259Y-80026705D01*
X50125521Y-79772674D01*
X50008604Y-79490410D01*
X49949000Y-79190760D01*
X49949000Y-78885240D01*
X49972122Y-78769000D01*
X50008604Y-78585591D01*
X50008604Y-78585590D01*
X50125521Y-78303326D01*
X50295259Y-78049295D01*
X50511295Y-77833259D01*
X50765326Y-77663521D01*
X51047590Y-77546604D01*
X51206977Y-77514900D01*
X51347239Y-77487000D01*
X51652761Y-77487000D01*
X51793023Y-77514900D01*
X51793023Y-77514900D01*
G37*
G36*
X123310072Y-76762918D02*
G01*
X123555939Y-76864759D01*
X123777212Y-77012610D01*
X123965390Y-77200788D01*
X124107187Y-77413000D01*
X124113242Y-77422063D01*
X124215082Y-77667928D01*
X124248153Y-77834185D01*
X124267000Y-77928938D01*
X124267000Y-78195062D01*
X124215082Y-78456072D01*
X124113241Y-78701939D01*
X123965390Y-78923212D01*
X123777212Y-79111390D01*
X123555939Y-79259241D01*
X123555938Y-79259242D01*
X123555937Y-79259242D01*
X123310072Y-79361082D01*
X123049063Y-79413000D01*
X122782937Y-79413000D01*
X122521928Y-79361082D01*
X122276063Y-79259242D01*
X122276062Y-79259242D01*
X122276061Y-79259241D01*
X122054788Y-79111390D01*
X121866610Y-78923212D01*
X121718759Y-78701939D01*
X121616918Y-78456072D01*
X121565000Y-78195062D01*
X121565000Y-77928938D01*
X121583848Y-77834185D01*
X121616918Y-77667928D01*
X121718758Y-77422063D01*
X121724814Y-77413000D01*
X121866610Y-77200788D01*
X122054788Y-77012610D01*
X122276061Y-76864759D01*
X122521928Y-76762918D01*
X122782937Y-76711000D01*
X123049063Y-76711000D01*
X123310072Y-76762918D01*
X123310072Y-76762918D01*
G37*
G36*
X135310072Y-76762918D02*
G01*
X135555939Y-76864759D01*
X135777212Y-77012610D01*
X135965390Y-77200788D01*
X136107187Y-77413000D01*
X136113242Y-77422063D01*
X136215082Y-77667928D01*
X136248153Y-77834185D01*
X136267000Y-77928938D01*
X136267000Y-78195062D01*
X136215082Y-78456072D01*
X136113241Y-78701939D01*
X135965390Y-78923212D01*
X135777212Y-79111390D01*
X135555939Y-79259241D01*
X135555938Y-79259242D01*
X135555937Y-79259242D01*
X135310072Y-79361082D01*
X135049063Y-79413000D01*
X134782937Y-79413000D01*
X134521928Y-79361082D01*
X134276063Y-79259242D01*
X134276062Y-79259242D01*
X134276061Y-79259241D01*
X134054788Y-79111390D01*
X133866610Y-78923212D01*
X133718759Y-78701939D01*
X133616918Y-78456072D01*
X133565000Y-78195062D01*
X133565000Y-77928938D01*
X133583848Y-77834185D01*
X133616918Y-77667928D01*
X133718758Y-77422063D01*
X133724814Y-77413000D01*
X133866610Y-77200788D01*
X134054788Y-77012610D01*
X134276061Y-76864759D01*
X134521928Y-76762918D01*
X134782937Y-76711000D01*
X135049063Y-76711000D01*
X135310072Y-76762918D01*
X135310072Y-76762918D01*
G37*
G36*
X58628228Y-77099703D02*
G01*
X58783100Y-77163853D01*
X58922481Y-77256985D01*
X59041015Y-77375519D01*
X59134147Y-77514900D01*
X59198297Y-77669772D01*
X59231000Y-77834184D01*
X59231000Y-78001816D01*
X59198297Y-78166228D01*
X59134147Y-78321100D01*
X59041015Y-78460481D01*
X58922481Y-78579015D01*
X58783100Y-78672147D01*
X58628228Y-78736297D01*
X58463816Y-78769000D01*
X58296184Y-78769000D01*
X58131772Y-78736297D01*
X57976900Y-78672147D01*
X57837519Y-78579015D01*
X57718985Y-78460481D01*
X57625853Y-78321100D01*
X57561703Y-78166228D01*
X57529000Y-78001816D01*
X57529000Y-77834184D01*
X57561703Y-77669772D01*
X57625853Y-77514900D01*
X57718985Y-77375519D01*
X57837519Y-77256985D01*
X57976900Y-77163853D01*
X58131772Y-77099703D01*
X58296184Y-77067000D01*
X58463816Y-77067000D01*
X58628228Y-77099703D01*
X58628228Y-77099703D01*
G37*
G36*
X71328228Y-77099703D02*
G01*
X71483100Y-77163853D01*
X71622481Y-77256985D01*
X71741015Y-77375519D01*
X71834147Y-77514900D01*
X71898297Y-77669772D01*
X71931000Y-77834184D01*
X71931000Y-78001816D01*
X71898297Y-78166228D01*
X71834147Y-78321100D01*
X71741015Y-78460481D01*
X71622481Y-78579015D01*
X71483100Y-78672147D01*
X71328228Y-78736297D01*
X71163816Y-78769000D01*
X70996184Y-78769000D01*
X70831772Y-78736297D01*
X70676900Y-78672147D01*
X70537519Y-78579015D01*
X70418985Y-78460481D01*
X70325853Y-78321100D01*
X70261703Y-78166228D01*
X70229000Y-78001816D01*
X70229000Y-77834184D01*
X70261703Y-77669772D01*
X70325853Y-77514900D01*
X70418985Y-77375519D01*
X70537519Y-77256985D01*
X70676900Y-77163853D01*
X70831772Y-77099703D01*
X70996184Y-77067000D01*
X71163816Y-77067000D01*
X71328228Y-77099703D01*
X71328228Y-77099703D01*
G37*
G36*
X129310072Y-74762918D02*
G01*
X129555939Y-74864759D01*
X129667328Y-74939187D01*
X129777211Y-75012609D01*
X129965391Y-75200789D01*
X130113242Y-75422063D01*
X130215082Y-75667928D01*
X130267000Y-75928937D01*
X130267000Y-76195063D01*
X130215082Y-76456072D01*
X130113241Y-76701939D01*
X129965390Y-76923212D01*
X129777212Y-77111390D01*
X129555939Y-77259241D01*
X129555938Y-77259242D01*
X129555937Y-77259242D01*
X129310072Y-77361082D01*
X129049063Y-77413000D01*
X128782937Y-77413000D01*
X128521928Y-77361082D01*
X128276063Y-77259242D01*
X128276062Y-77259242D01*
X128276061Y-77259241D01*
X128054788Y-77111390D01*
X127866610Y-76923212D01*
X127718759Y-76701939D01*
X127616918Y-76456072D01*
X127565000Y-76195063D01*
X127565000Y-75928937D01*
X127616918Y-75667928D01*
X127718758Y-75422063D01*
X127866609Y-75200789D01*
X128054789Y-75012609D01*
X128164672Y-74939187D01*
X128276061Y-74864759D01*
X128521928Y-74762918D01*
X128782937Y-74711000D01*
X129049063Y-74711000D01*
X129310072Y-74762918D01*
X129310072Y-74762918D01*
G37*
G36*
X58628228Y-74559703D02*
G01*
X58783100Y-74623853D01*
X58922481Y-74716985D01*
X59041015Y-74835519D01*
X59134147Y-74974900D01*
X59198297Y-75129772D01*
X59231000Y-75294184D01*
X59231000Y-75461816D01*
X59198297Y-75626228D01*
X59134147Y-75781100D01*
X59041015Y-75920481D01*
X58922481Y-76039015D01*
X58783100Y-76132147D01*
X58628228Y-76196297D01*
X58463816Y-76229000D01*
X58296184Y-76229000D01*
X58131772Y-76196297D01*
X57976900Y-76132147D01*
X57837519Y-76039015D01*
X57718985Y-75920481D01*
X57625853Y-75781100D01*
X57561703Y-75626228D01*
X57529000Y-75461816D01*
X57529000Y-75294184D01*
X57561703Y-75129772D01*
X57625853Y-74974900D01*
X57718985Y-74835519D01*
X57837519Y-74716985D01*
X57976900Y-74623853D01*
X58131772Y-74559703D01*
X58296184Y-74527000D01*
X58463816Y-74527000D01*
X58628228Y-74559703D01*
X58628228Y-74559703D01*
G37*
G36*
X71328228Y-74559703D02*
G01*
X71483100Y-74623853D01*
X71622481Y-74716985D01*
X71741015Y-74835519D01*
X71834147Y-74974900D01*
X71898297Y-75129772D01*
X71931000Y-75294184D01*
X71931000Y-75461816D01*
X71898297Y-75626228D01*
X71834147Y-75781100D01*
X71741015Y-75920481D01*
X71622481Y-76039015D01*
X71483100Y-76132147D01*
X71328228Y-76196297D01*
X71163816Y-76229000D01*
X70996184Y-76229000D01*
X70831772Y-76196297D01*
X70676900Y-76132147D01*
X70537519Y-76039015D01*
X70418985Y-75920481D01*
X70325853Y-75781100D01*
X70261703Y-75626228D01*
X70229000Y-75461816D01*
X70229000Y-75294184D01*
X70261703Y-75129772D01*
X70325853Y-74974900D01*
X70418985Y-74835519D01*
X70537519Y-74716985D01*
X70676900Y-74623853D01*
X70831772Y-74559703D01*
X70996184Y-74527000D01*
X71163816Y-74527000D01*
X71328228Y-74559703D01*
X71328228Y-74559703D01*
G37*
G36*
X51793023Y-72434900D02*
G01*
X51952410Y-72466604D01*
X52234674Y-72583521D01*
X52488705Y-72753259D01*
X52704741Y-72969295D01*
X52874479Y-73223326D01*
X52991396Y-73505590D01*
X52991396Y-73505591D01*
X53027879Y-73689000D01*
X53051000Y-73805240D01*
X53051000Y-74110760D01*
X52991396Y-74410410D01*
X52874479Y-74692674D01*
X52704741Y-74946705D01*
X52488705Y-75162741D01*
X52234674Y-75332479D01*
X51952410Y-75449396D01*
X51889975Y-75461815D01*
X51652761Y-75509000D01*
X51347239Y-75509000D01*
X51110025Y-75461815D01*
X51047590Y-75449396D01*
X50765326Y-75332479D01*
X50511295Y-75162741D01*
X50295259Y-74946705D01*
X50125521Y-74692674D01*
X50008604Y-74410410D01*
X49949000Y-74110760D01*
X49949000Y-73805240D01*
X49972122Y-73689000D01*
X50008604Y-73505591D01*
X50008604Y-73505590D01*
X50125521Y-73223326D01*
X50295259Y-72969295D01*
X50511295Y-72753259D01*
X50765326Y-72583521D01*
X51047590Y-72466604D01*
X51206977Y-72434900D01*
X51347239Y-72407000D01*
X51652761Y-72407000D01*
X51793023Y-72434900D01*
X51793023Y-72434900D01*
G37*
G36*
X71328228Y-72019703D02*
G01*
X71483100Y-72083853D01*
X71622481Y-72176985D01*
X71741015Y-72295519D01*
X71834147Y-72434900D01*
X71898297Y-72589772D01*
X71931000Y-72754184D01*
X71931000Y-72921816D01*
X71898297Y-73086228D01*
X71834147Y-73241100D01*
X71741015Y-73380481D01*
X71622481Y-73499015D01*
X71483100Y-73592147D01*
X71328228Y-73656297D01*
X71163816Y-73689000D01*
X70996184Y-73689000D01*
X70831772Y-73656297D01*
X70676900Y-73592147D01*
X70537519Y-73499015D01*
X70418985Y-73380481D01*
X70325853Y-73241100D01*
X70261703Y-73086228D01*
X70229000Y-72921816D01*
X70229000Y-72754184D01*
X70261703Y-72589772D01*
X70325853Y-72434900D01*
X70418985Y-72295519D01*
X70537519Y-72176985D01*
X70676900Y-72083853D01*
X70831772Y-72019703D01*
X70996184Y-71987000D01*
X71163816Y-71987000D01*
X71328228Y-72019703D01*
X71328228Y-72019703D01*
G37*
G36*
X68788228Y-72019703D02*
G01*
X68943100Y-72083853D01*
X69082481Y-72176985D01*
X69201015Y-72295519D01*
X69294147Y-72434900D01*
X69358297Y-72589772D01*
X69391000Y-72754184D01*
X69391000Y-72921816D01*
X69358297Y-73086228D01*
X69294147Y-73241100D01*
X69201015Y-73380481D01*
X69082481Y-73499015D01*
X68943100Y-73592147D01*
X68788228Y-73656297D01*
X68623816Y-73689000D01*
X68456184Y-73689000D01*
X68291772Y-73656297D01*
X68136900Y-73592147D01*
X67997519Y-73499015D01*
X67878985Y-73380481D01*
X67785853Y-73241100D01*
X67721703Y-73086228D01*
X67689000Y-72921816D01*
X67689000Y-72754184D01*
X67721703Y-72589772D01*
X67785853Y-72434900D01*
X67878985Y-72295519D01*
X67997519Y-72176985D01*
X68136900Y-72083853D01*
X68291772Y-72019703D01*
X68456184Y-71987000D01*
X68623816Y-71987000D01*
X68788228Y-72019703D01*
X68788228Y-72019703D01*
G37*
G36*
X66248228Y-72019703D02*
G01*
X66403100Y-72083853D01*
X66542481Y-72176985D01*
X66661015Y-72295519D01*
X66754147Y-72434900D01*
X66818297Y-72589772D01*
X66851000Y-72754184D01*
X66851000Y-72921816D01*
X66818297Y-73086228D01*
X66754147Y-73241100D01*
X66661015Y-73380481D01*
X66542481Y-73499015D01*
X66403100Y-73592147D01*
X66248228Y-73656297D01*
X66083816Y-73689000D01*
X65916184Y-73689000D01*
X65751772Y-73656297D01*
X65596900Y-73592147D01*
X65457519Y-73499015D01*
X65338985Y-73380481D01*
X65245853Y-73241100D01*
X65181703Y-73086228D01*
X65149000Y-72921816D01*
X65149000Y-72754184D01*
X65181703Y-72589772D01*
X65245853Y-72434900D01*
X65338985Y-72295519D01*
X65457519Y-72176985D01*
X65596900Y-72083853D01*
X65751772Y-72019703D01*
X65916184Y-71987000D01*
X66083816Y-71987000D01*
X66248228Y-72019703D01*
X66248228Y-72019703D01*
G37*
G36*
X58628228Y-72019703D02*
G01*
X58783100Y-72083853D01*
X58922481Y-72176985D01*
X59041015Y-72295519D01*
X59134147Y-72434900D01*
X59198297Y-72589772D01*
X59231000Y-72754184D01*
X59231000Y-72921816D01*
X59198297Y-73086228D01*
X59134147Y-73241100D01*
X59041015Y-73380481D01*
X58922481Y-73499015D01*
X58783100Y-73592147D01*
X58628228Y-73656297D01*
X58463816Y-73689000D01*
X58296184Y-73689000D01*
X58131772Y-73656297D01*
X57976900Y-73592147D01*
X57837519Y-73499015D01*
X57718985Y-73380481D01*
X57625853Y-73241100D01*
X57561703Y-73086228D01*
X57529000Y-72921816D01*
X57529000Y-72754184D01*
X57561703Y-72589772D01*
X57625853Y-72434900D01*
X57718985Y-72295519D01*
X57837519Y-72176985D01*
X57976900Y-72083853D01*
X58131772Y-72019703D01*
X58296184Y-71987000D01*
X58463816Y-71987000D01*
X58628228Y-72019703D01*
X58628228Y-72019703D01*
G37*
G36*
X144051000Y-67813000D02*
G01*
X140949000Y-67813000D01*
X140949000Y-64711000D01*
X144051000Y-64711000D01*
X144051000Y-67813000D01*
X144051000Y-67813000D01*
G37*
G36*
X98451564Y-64524389D02*
G01*
X98642833Y-64603615D01*
X98642835Y-64603616D01*
X98721341Y-64656072D01*
X98814973Y-64718635D01*
X98961365Y-64865027D01*
X99076385Y-65037167D01*
X99155611Y-65228436D01*
X99196000Y-65431484D01*
X99196000Y-65638516D01*
X99155611Y-65841564D01*
X99076385Y-66032833D01*
X99076384Y-66032835D01*
X98961365Y-66204973D01*
X98814973Y-66351365D01*
X98642835Y-66466384D01*
X98642834Y-66466385D01*
X98642833Y-66466385D01*
X98451564Y-66545611D01*
X98248516Y-66586000D01*
X98041484Y-66586000D01*
X97838436Y-66545611D01*
X97647167Y-66466385D01*
X97647166Y-66466385D01*
X97647165Y-66466384D01*
X97475027Y-66351365D01*
X97328635Y-66204973D01*
X97213616Y-66032835D01*
X97213615Y-66032833D01*
X97134389Y-65841564D01*
X97094000Y-65638516D01*
X97094000Y-65431484D01*
X97134389Y-65228436D01*
X97213615Y-65037167D01*
X97328635Y-64865027D01*
X97475027Y-64718635D01*
X97568659Y-64656072D01*
X97647165Y-64603616D01*
X97647167Y-64603615D01*
X97838436Y-64524389D01*
X98041484Y-64484000D01*
X98248516Y-64484000D01*
X98451564Y-64524389D01*
X98451564Y-64524389D01*
G37*
G36*
X113691564Y-64524389D02*
G01*
X113882833Y-64603615D01*
X113882835Y-64603616D01*
X113961341Y-64656072D01*
X114054973Y-64718635D01*
X114201365Y-64865027D01*
X114316385Y-65037167D01*
X114395611Y-65228436D01*
X114436000Y-65431484D01*
X114436000Y-65638516D01*
X114395611Y-65841564D01*
X114316385Y-66032833D01*
X114316384Y-66032835D01*
X114201365Y-66204973D01*
X114054973Y-66351365D01*
X113882835Y-66466384D01*
X113882834Y-66466385D01*
X113882833Y-66466385D01*
X113691564Y-66545611D01*
X113488516Y-66586000D01*
X113281484Y-66586000D01*
X113078436Y-66545611D01*
X112887167Y-66466385D01*
X112887166Y-66466385D01*
X112887165Y-66466384D01*
X112715027Y-66351365D01*
X112568635Y-66204973D01*
X112453616Y-66032835D01*
X112453615Y-66032833D01*
X112374389Y-65841564D01*
X112334000Y-65638516D01*
X112334000Y-65431484D01*
X112374389Y-65228436D01*
X112453615Y-65037167D01*
X112568635Y-64865027D01*
X112715027Y-64718635D01*
X112808659Y-64656072D01*
X112887165Y-64603616D01*
X112887167Y-64603615D01*
X113078436Y-64524389D01*
X113281484Y-64484000D01*
X113488516Y-64484000D01*
X113691564Y-64524389D01*
X113691564Y-64524389D01*
G37*
G36*
X123310072Y-62962918D02*
G01*
X123555939Y-63064759D01*
X123667328Y-63139187D01*
X123777211Y-63212609D01*
X123965391Y-63400789D01*
X124113242Y-63622063D01*
X124215082Y-63867928D01*
X124267000Y-64128937D01*
X124267000Y-64395063D01*
X124215082Y-64656072D01*
X124128531Y-64865027D01*
X124113241Y-64901939D01*
X123965390Y-65123212D01*
X123777212Y-65311390D01*
X123555939Y-65459241D01*
X123555938Y-65459242D01*
X123555937Y-65459242D01*
X123310072Y-65561082D01*
X123049063Y-65613000D01*
X122782937Y-65613000D01*
X122521928Y-65561082D01*
X122276063Y-65459242D01*
X122276062Y-65459242D01*
X122276061Y-65459241D01*
X122054788Y-65311390D01*
X121866610Y-65123212D01*
X121718759Y-64901939D01*
X121703470Y-64865027D01*
X121616918Y-64656072D01*
X121565000Y-64395063D01*
X121565000Y-64128937D01*
X121616918Y-63867928D01*
X121718758Y-63622063D01*
X121866609Y-63400789D01*
X122054789Y-63212609D01*
X122164672Y-63139187D01*
X122276061Y-63064759D01*
X122521928Y-62962918D01*
X122782937Y-62911000D01*
X123049063Y-62911000D01*
X123310072Y-62962918D01*
X123310072Y-62962918D01*
G37*
G36*
X135310072Y-62962918D02*
G01*
X135555939Y-63064759D01*
X135667328Y-63139187D01*
X135777211Y-63212609D01*
X135965391Y-63400789D01*
X136113242Y-63622063D01*
X136215082Y-63867928D01*
X136267000Y-64128937D01*
X136267000Y-64395063D01*
X136215082Y-64656072D01*
X136128531Y-64865027D01*
X136113241Y-64901939D01*
X135965390Y-65123212D01*
X135777212Y-65311390D01*
X135555939Y-65459241D01*
X135555938Y-65459242D01*
X135555937Y-65459242D01*
X135310072Y-65561082D01*
X135049063Y-65613000D01*
X134782937Y-65613000D01*
X134521928Y-65561082D01*
X134276063Y-65459242D01*
X134276062Y-65459242D01*
X134276061Y-65459241D01*
X134054788Y-65311390D01*
X133866610Y-65123212D01*
X133718759Y-64901939D01*
X133703470Y-64865027D01*
X133616918Y-64656072D01*
X133565000Y-64395063D01*
X133565000Y-64128937D01*
X133616918Y-63867928D01*
X133718758Y-63622063D01*
X133866609Y-63400789D01*
X134054789Y-63212609D01*
X134164672Y-63139187D01*
X134276061Y-63064759D01*
X134521928Y-62962918D01*
X134782937Y-62911000D01*
X135049063Y-62911000D01*
X135310072Y-62962918D01*
X135310072Y-62962918D01*
G37*
G36*
X113691564Y-61984389D02*
G01*
X113882833Y-62063615D01*
X113882835Y-62063616D01*
X114043103Y-62170704D01*
X114054973Y-62178635D01*
X114201365Y-62325027D01*
X114316385Y-62497167D01*
X114395611Y-62688436D01*
X114436000Y-62891484D01*
X114436000Y-63098516D01*
X114395611Y-63301564D01*
X114316385Y-63492833D01*
X114316384Y-63492835D01*
X114201365Y-63664973D01*
X114054973Y-63811365D01*
X113882835Y-63926384D01*
X113882834Y-63926385D01*
X113882833Y-63926385D01*
X113691564Y-64005611D01*
X113488516Y-64046000D01*
X113281484Y-64046000D01*
X113078436Y-64005611D01*
X112887167Y-63926385D01*
X112887166Y-63926385D01*
X112887165Y-63926384D01*
X112715027Y-63811365D01*
X112568635Y-63664973D01*
X112453616Y-63492835D01*
X112453615Y-63492833D01*
X112374389Y-63301564D01*
X112334000Y-63098516D01*
X112334000Y-62891484D01*
X112374389Y-62688436D01*
X112453615Y-62497167D01*
X112568635Y-62325027D01*
X112715027Y-62178635D01*
X112726897Y-62170704D01*
X112887165Y-62063616D01*
X112887167Y-62063615D01*
X113078436Y-61984389D01*
X113281484Y-61944000D01*
X113488516Y-61944000D01*
X113691564Y-61984389D01*
X113691564Y-61984389D01*
G37*
G36*
X98451564Y-61984389D02*
G01*
X98642833Y-62063615D01*
X98642835Y-62063616D01*
X98803103Y-62170704D01*
X98814973Y-62178635D01*
X98961365Y-62325027D01*
X99076385Y-62497167D01*
X99155611Y-62688436D01*
X99196000Y-62891484D01*
X99196000Y-63098516D01*
X99155611Y-63301564D01*
X99076385Y-63492833D01*
X99076384Y-63492835D01*
X98961365Y-63664973D01*
X98814973Y-63811365D01*
X98642835Y-63926384D01*
X98642834Y-63926385D01*
X98642833Y-63926385D01*
X98451564Y-64005611D01*
X98248516Y-64046000D01*
X98041484Y-64046000D01*
X97838436Y-64005611D01*
X97647167Y-63926385D01*
X97647166Y-63926385D01*
X97647165Y-63926384D01*
X97475027Y-63811365D01*
X97328635Y-63664973D01*
X97213616Y-63492835D01*
X97213615Y-63492833D01*
X97134389Y-63301564D01*
X97094000Y-63098516D01*
X97094000Y-62891484D01*
X97134389Y-62688436D01*
X97213615Y-62497167D01*
X97328635Y-62325027D01*
X97475027Y-62178635D01*
X97486897Y-62170704D01*
X97647165Y-62063616D01*
X97647167Y-62063615D01*
X97838436Y-61984389D01*
X98041484Y-61944000D01*
X98248516Y-61944000D01*
X98451564Y-61984389D01*
X98451564Y-61984389D01*
G37*
G36*
X142802585Y-59660802D02*
G01*
X142952410Y-59690604D01*
X143234674Y-59807521D01*
X143488705Y-59977259D01*
X143704741Y-60193295D01*
X143874479Y-60447326D01*
X143991396Y-60729590D01*
X144051000Y-61029240D01*
X144051000Y-61334760D01*
X143991396Y-61634410D01*
X143874479Y-61916674D01*
X143704741Y-62170705D01*
X143488705Y-62386741D01*
X143234674Y-62556479D01*
X142952410Y-62673396D01*
X142802585Y-62703198D01*
X142652761Y-62733000D01*
X142347239Y-62733000D01*
X142197415Y-62703198D01*
X142047590Y-62673396D01*
X141765326Y-62556479D01*
X141511295Y-62386741D01*
X141295259Y-62170705D01*
X141125521Y-61916674D01*
X141008604Y-61634410D01*
X140949000Y-61334760D01*
X140949000Y-61029240D01*
X141008604Y-60729590D01*
X141125521Y-60447326D01*
X141295259Y-60193295D01*
X141511295Y-59977259D01*
X141765326Y-59807521D01*
X142047590Y-59690604D01*
X142197415Y-59660802D01*
X142347239Y-59631000D01*
X142652761Y-59631000D01*
X142802585Y-59660802D01*
X142802585Y-59660802D01*
G37*
G36*
X142802585Y-54580802D02*
G01*
X142952410Y-54610604D01*
X143234674Y-54727521D01*
X143488705Y-54897259D01*
X143704741Y-55113295D01*
X143874479Y-55367326D01*
X143991396Y-55649590D01*
X144051000Y-55949240D01*
X144051000Y-56254760D01*
X143991396Y-56554410D01*
X143874479Y-56836674D01*
X143704741Y-57090705D01*
X143488705Y-57306741D01*
X143234674Y-57476479D01*
X142952410Y-57593396D01*
X142802585Y-57623198D01*
X142652761Y-57653000D01*
X142347239Y-57653000D01*
X142197415Y-57623198D01*
X142047590Y-57593396D01*
X141765326Y-57476479D01*
X141511295Y-57306741D01*
X141295259Y-57090705D01*
X141125521Y-56836674D01*
X141008604Y-56554410D01*
X140949000Y-56254760D01*
X140949000Y-55949240D01*
X141008604Y-55649590D01*
X141125521Y-55367326D01*
X141295259Y-55113295D01*
X141511295Y-54897259D01*
X141765326Y-54727521D01*
X142047590Y-54610604D01*
X142197415Y-54580802D01*
X142347239Y-54551000D01*
X142652761Y-54551000D01*
X142802585Y-54580802D01*
X142802585Y-54580802D01*
G37*
G36*
X135310072Y-50762918D02*
G01*
X135513645Y-50847240D01*
X135555939Y-50864759D01*
X135777212Y-51012610D01*
X135965390Y-51200788D01*
X136107187Y-51413000D01*
X136113242Y-51422063D01*
X136125812Y-51452410D01*
X136215082Y-51667928D01*
X136267000Y-51928938D01*
X136267000Y-52195062D01*
X136215082Y-52456072D01*
X136113241Y-52701939D01*
X135965390Y-52923212D01*
X135777212Y-53111390D01*
X135555939Y-53259241D01*
X135555938Y-53259242D01*
X135555937Y-53259242D01*
X135310072Y-53361082D01*
X135049063Y-53413000D01*
X134782937Y-53413000D01*
X134521928Y-53361082D01*
X134276063Y-53259242D01*
X134276062Y-53259242D01*
X134276061Y-53259241D01*
X134054788Y-53111390D01*
X133866610Y-52923212D01*
X133718759Y-52701939D01*
X133616918Y-52456072D01*
X133565000Y-52195062D01*
X133565000Y-51928938D01*
X133616918Y-51667928D01*
X133706188Y-51452410D01*
X133718758Y-51422063D01*
X133724814Y-51413000D01*
X133866610Y-51200788D01*
X134054788Y-51012610D01*
X134276061Y-50864759D01*
X134318356Y-50847240D01*
X134521928Y-50762918D01*
X134782937Y-50711000D01*
X135049063Y-50711000D01*
X135310072Y-50762918D01*
X135310072Y-50762918D01*
G37*
G36*
X123310072Y-50762918D02*
G01*
X123513645Y-50847240D01*
X123555939Y-50864759D01*
X123777212Y-51012610D01*
X123965390Y-51200788D01*
X124107187Y-51413000D01*
X124113242Y-51422063D01*
X124125812Y-51452410D01*
X124215082Y-51667928D01*
X124267000Y-51928938D01*
X124267000Y-52195062D01*
X124215082Y-52456072D01*
X124113241Y-52701939D01*
X123965390Y-52923212D01*
X123777212Y-53111390D01*
X123555939Y-53259241D01*
X123555938Y-53259242D01*
X123555937Y-53259242D01*
X123310072Y-53361082D01*
X123049063Y-53413000D01*
X122782937Y-53413000D01*
X122521928Y-53361082D01*
X122276063Y-53259242D01*
X122276062Y-53259242D01*
X122276061Y-53259241D01*
X122054788Y-53111390D01*
X121866610Y-52923212D01*
X121718759Y-52701939D01*
X121616918Y-52456072D01*
X121565000Y-52195062D01*
X121565000Y-51928938D01*
X121616918Y-51667928D01*
X121706188Y-51452410D01*
X121718758Y-51422063D01*
X121724814Y-51413000D01*
X121866610Y-51200788D01*
X122054788Y-51012610D01*
X122276061Y-50864759D01*
X122318356Y-50847240D01*
X122521928Y-50762918D01*
X122782937Y-50711000D01*
X123049063Y-50711000D01*
X123310072Y-50762918D01*
X123310072Y-50762918D01*
G37*
G36*
X110517000Y-52551000D02*
G01*
X107415000Y-52551000D01*
X107415000Y-49449000D01*
X110517000Y-49449000D01*
X110517000Y-52551000D01*
X110517000Y-52551000D01*
G37*
G36*
X104188585Y-49478802D02*
G01*
X104338410Y-49508604D01*
X104620674Y-49625521D01*
X104874705Y-49795259D01*
X105090741Y-50011295D01*
X105260479Y-50265326D01*
X105377396Y-50547590D01*
X105377396Y-50547591D01*
X105437000Y-50847239D01*
X105437000Y-51152761D01*
X105407198Y-51302585D01*
X105377396Y-51452410D01*
X105260479Y-51734674D01*
X105090741Y-51988705D01*
X104874705Y-52204741D01*
X104620674Y-52374479D01*
X104338410Y-52491396D01*
X104188585Y-52521198D01*
X104038761Y-52551000D01*
X103733239Y-52551000D01*
X103583415Y-52521198D01*
X103433590Y-52491396D01*
X103151326Y-52374479D01*
X102897295Y-52204741D01*
X102681259Y-51988705D01*
X102511521Y-51734674D01*
X102394604Y-51452410D01*
X102364802Y-51302585D01*
X102335000Y-51152761D01*
X102335000Y-50847239D01*
X102394604Y-50547591D01*
X102394604Y-50547590D01*
X102511521Y-50265326D01*
X102681259Y-50011295D01*
X102897295Y-49795259D01*
X103151326Y-49625521D01*
X103433590Y-49508604D01*
X103583415Y-49478802D01*
X103733239Y-49449000D01*
X104038761Y-49449000D01*
X104188585Y-49478802D01*
X104188585Y-49478802D01*
G37*
G36*
X79042585Y-49278802D02*
G01*
X79192410Y-49308604D01*
X79474674Y-49425521D01*
X79728705Y-49595259D01*
X79944741Y-49811295D01*
X80114479Y-50065326D01*
X80196789Y-50264042D01*
X80231396Y-50347591D01*
X80291000Y-50647239D01*
X80291000Y-50952761D01*
X80261198Y-51102585D01*
X80231396Y-51252410D01*
X80114479Y-51534674D01*
X79944741Y-51788705D01*
X79728705Y-52004741D01*
X79474674Y-52174479D01*
X79192410Y-52291396D01*
X79042585Y-52321198D01*
X78892761Y-52351000D01*
X78587239Y-52351000D01*
X78437415Y-52321198D01*
X78287590Y-52291396D01*
X78005326Y-52174479D01*
X77751295Y-52004741D01*
X77535259Y-51788705D01*
X77365521Y-51534674D01*
X77248604Y-51252410D01*
X77218802Y-51102585D01*
X77189000Y-50952761D01*
X77189000Y-50647239D01*
X77248604Y-50347591D01*
X77283211Y-50264042D01*
X77365521Y-50065326D01*
X77535259Y-49811295D01*
X77751295Y-49595259D01*
X78005326Y-49425521D01*
X78287590Y-49308604D01*
X78437415Y-49278802D01*
X78587239Y-49249000D01*
X78892761Y-49249000D01*
X79042585Y-49278802D01*
X79042585Y-49278802D01*
G37*
G36*
X73962585Y-49278802D02*
G01*
X74112410Y-49308604D01*
X74394674Y-49425521D01*
X74648705Y-49595259D01*
X74864741Y-49811295D01*
X75034479Y-50065326D01*
X75116789Y-50264042D01*
X75151396Y-50347591D01*
X75211000Y-50647239D01*
X75211000Y-50952761D01*
X75181198Y-51102585D01*
X75151396Y-51252410D01*
X75034479Y-51534674D01*
X74864741Y-51788705D01*
X74648705Y-52004741D01*
X74394674Y-52174479D01*
X74112410Y-52291396D01*
X73962585Y-52321198D01*
X73812761Y-52351000D01*
X73507239Y-52351000D01*
X73357415Y-52321198D01*
X73207590Y-52291396D01*
X72925326Y-52174479D01*
X72671295Y-52004741D01*
X72455259Y-51788705D01*
X72285521Y-51534674D01*
X72168604Y-51252410D01*
X72138802Y-51102585D01*
X72109000Y-50952761D01*
X72109000Y-50647239D01*
X72168604Y-50347591D01*
X72203211Y-50264042D01*
X72285521Y-50065326D01*
X72455259Y-49811295D01*
X72671295Y-49595259D01*
X72925326Y-49425521D01*
X73207590Y-49308604D01*
X73357415Y-49278802D01*
X73507239Y-49249000D01*
X73812761Y-49249000D01*
X73962585Y-49278802D01*
X73962585Y-49278802D01*
G37*
G36*
X68882585Y-49278802D02*
G01*
X69032410Y-49308604D01*
X69314674Y-49425521D01*
X69568705Y-49595259D01*
X69784741Y-49811295D01*
X69954479Y-50065326D01*
X70036789Y-50264042D01*
X70071396Y-50347591D01*
X70131000Y-50647239D01*
X70131000Y-50952761D01*
X70101198Y-51102585D01*
X70071396Y-51252410D01*
X69954479Y-51534674D01*
X69784741Y-51788705D01*
X69568705Y-52004741D01*
X69314674Y-52174479D01*
X69032410Y-52291396D01*
X68882585Y-52321198D01*
X68732761Y-52351000D01*
X68427239Y-52351000D01*
X68277415Y-52321198D01*
X68127590Y-52291396D01*
X67845326Y-52174479D01*
X67591295Y-52004741D01*
X67375259Y-51788705D01*
X67205521Y-51534674D01*
X67088604Y-51252410D01*
X67058802Y-51102585D01*
X67029000Y-50952761D01*
X67029000Y-50647239D01*
X67088604Y-50347591D01*
X67123211Y-50264042D01*
X67205521Y-50065326D01*
X67375259Y-49811295D01*
X67591295Y-49595259D01*
X67845326Y-49425521D01*
X68127590Y-49308604D01*
X68277415Y-49278802D01*
X68427239Y-49249000D01*
X68732761Y-49249000D01*
X68882585Y-49278802D01*
X68882585Y-49278802D01*
G37*
G36*
X90451000Y-52351000D02*
G01*
X87349000Y-52351000D01*
X87349000Y-49249000D01*
X90451000Y-49249000D01*
X90451000Y-52351000D01*
X90451000Y-52351000D01*
G37*
G36*
X84122585Y-49278802D02*
G01*
X84272410Y-49308604D01*
X84554674Y-49425521D01*
X84808705Y-49595259D01*
X85024741Y-49811295D01*
X85194479Y-50065326D01*
X85276789Y-50264042D01*
X85311396Y-50347591D01*
X85371000Y-50647239D01*
X85371000Y-50952761D01*
X85341198Y-51102585D01*
X85311396Y-51252410D01*
X85194479Y-51534674D01*
X85024741Y-51788705D01*
X84808705Y-52004741D01*
X84554674Y-52174479D01*
X84272410Y-52291396D01*
X84122585Y-52321198D01*
X83972761Y-52351000D01*
X83667239Y-52351000D01*
X83517415Y-52321198D01*
X83367590Y-52291396D01*
X83085326Y-52174479D01*
X82831295Y-52004741D01*
X82615259Y-51788705D01*
X82445521Y-51534674D01*
X82328604Y-51252410D01*
X82298802Y-51102585D01*
X82269000Y-50952761D01*
X82269000Y-50647239D01*
X82328604Y-50347591D01*
X82363211Y-50264042D01*
X82445521Y-50065326D01*
X82615259Y-49811295D01*
X82831295Y-49595259D01*
X83085326Y-49425521D01*
X83367590Y-49308604D01*
X83517415Y-49278802D01*
X83667239Y-49249000D01*
X83972761Y-49249000D01*
X84122585Y-49278802D01*
X84122585Y-49278802D01*
G37*
G36*
X63802585Y-49278802D02*
G01*
X63952410Y-49308604D01*
X64234674Y-49425521D01*
X64488705Y-49595259D01*
X64704741Y-49811295D01*
X64874479Y-50065326D01*
X64956789Y-50264042D01*
X64991396Y-50347591D01*
X65051000Y-50647239D01*
X65051000Y-50952761D01*
X65021198Y-51102585D01*
X64991396Y-51252410D01*
X64874479Y-51534674D01*
X64704741Y-51788705D01*
X64488705Y-52004741D01*
X64234674Y-52174479D01*
X63952410Y-52291396D01*
X63802585Y-52321198D01*
X63652761Y-52351000D01*
X63347239Y-52351000D01*
X63197415Y-52321198D01*
X63047590Y-52291396D01*
X62765326Y-52174479D01*
X62511295Y-52004741D01*
X62295259Y-51788705D01*
X62125521Y-51534674D01*
X62008604Y-51252410D01*
X61978802Y-51102585D01*
X61949000Y-50952761D01*
X61949000Y-50647239D01*
X62008604Y-50347591D01*
X62043211Y-50264042D01*
X62125521Y-50065326D01*
X62295259Y-49811295D01*
X62511295Y-49595259D01*
X62765326Y-49425521D01*
X63047590Y-49308604D01*
X63197415Y-49278802D01*
X63347239Y-49249000D01*
X63652761Y-49249000D01*
X63802585Y-49278802D01*
X63802585Y-49278802D01*
G37*
G36*
X129310072Y-48762918D02*
G01*
X129555939Y-48864759D01*
X129667328Y-48939187D01*
X129777211Y-49012609D01*
X129965391Y-49200789D01*
X130113242Y-49422063D01*
X130215082Y-49667928D01*
X130267000Y-49928937D01*
X130267000Y-50195063D01*
X130215082Y-50456072D01*
X130135899Y-50647239D01*
X130113241Y-50701939D01*
X130071495Y-50764416D01*
X129965391Y-50923211D01*
X129777211Y-51111391D01*
X129667328Y-51184813D01*
X129555939Y-51259241D01*
X129555938Y-51259242D01*
X129555937Y-51259242D01*
X129310072Y-51361082D01*
X129049063Y-51413000D01*
X128782937Y-51413000D01*
X128521928Y-51361082D01*
X128276063Y-51259242D01*
X128276062Y-51259242D01*
X128276061Y-51259241D01*
X128164672Y-51184813D01*
X128054789Y-51111391D01*
X127866609Y-50923211D01*
X127760505Y-50764416D01*
X127718759Y-50701939D01*
X127696102Y-50647239D01*
X127616918Y-50456072D01*
X127565000Y-50195063D01*
X127565000Y-49928937D01*
X127616918Y-49667928D01*
X127718758Y-49422063D01*
X127866609Y-49200789D01*
X128054789Y-49012609D01*
X128164672Y-48939187D01*
X128276061Y-48864759D01*
X128521928Y-48762918D01*
X128782937Y-48711000D01*
X129049063Y-48711000D01*
X129310072Y-48762918D01*
X129310072Y-48762918D01*
G37*
G36*
X50365256Y-47873298D02*
G01*
X50471579Y-47894447D01*
X50772042Y-48018903D01*
X51042451Y-48199585D01*
X51272415Y-48429549D01*
X51453097Y-48699958D01*
X51577553Y-49000421D01*
X51598702Y-49106744D01*
X51638855Y-49308604D01*
X51641000Y-49319391D01*
X51641000Y-49644609D01*
X51584444Y-49928938D01*
X51577553Y-49963578D01*
X51481670Y-50195062D01*
X51453097Y-50264042D01*
X51272415Y-50534451D01*
X51042451Y-50764415D01*
X50772042Y-50945097D01*
X50772041Y-50945098D01*
X50772040Y-50945098D01*
X50684037Y-50981550D01*
X50471579Y-51069553D01*
X50365256Y-51090702D01*
X50152611Y-51133000D01*
X49827389Y-51133000D01*
X49614744Y-51090702D01*
X49508421Y-51069553D01*
X49295963Y-50981550D01*
X49207960Y-50945098D01*
X49207959Y-50945098D01*
X49207958Y-50945097D01*
X48937549Y-50764415D01*
X48707585Y-50534451D01*
X48526903Y-50264042D01*
X48498331Y-50195062D01*
X48402447Y-49963578D01*
X48395557Y-49928938D01*
X48339000Y-49644609D01*
X48339000Y-49319391D01*
X48341146Y-49308604D01*
X48381298Y-49106744D01*
X48402447Y-49000421D01*
X48526903Y-48699958D01*
X48707585Y-48429549D01*
X48937549Y-48199585D01*
X49207958Y-48018903D01*
X49508421Y-47894447D01*
X49614744Y-47873298D01*
X49827389Y-47831000D01*
X50152611Y-47831000D01*
X50365256Y-47873298D01*
X50365256Y-47873298D01*
G37*
G36*
X144441256Y-47873298D02*
G01*
X144547579Y-47894447D01*
X144848042Y-48018903D01*
X145118451Y-48199585D01*
X145348415Y-48429549D01*
X145529097Y-48699958D01*
X145653553Y-49000421D01*
X145674702Y-49106744D01*
X145714855Y-49308604D01*
X145717000Y-49319391D01*
X145717000Y-49644609D01*
X145660444Y-49928938D01*
X145653553Y-49963578D01*
X145557670Y-50195062D01*
X145529097Y-50264042D01*
X145348415Y-50534451D01*
X145118451Y-50764415D01*
X144848042Y-50945097D01*
X144848041Y-50945098D01*
X144848040Y-50945098D01*
X144760037Y-50981550D01*
X144547579Y-51069553D01*
X144441256Y-51090702D01*
X144228611Y-51133000D01*
X143903389Y-51133000D01*
X143690744Y-51090702D01*
X143584421Y-51069553D01*
X143371963Y-50981550D01*
X143283960Y-50945098D01*
X143283959Y-50945098D01*
X143283958Y-50945097D01*
X143013549Y-50764415D01*
X142783585Y-50534451D01*
X142602903Y-50264042D01*
X142574331Y-50195062D01*
X142478447Y-49963578D01*
X142471557Y-49928938D01*
X142415000Y-49644609D01*
X142415000Y-49319391D01*
X142417146Y-49308604D01*
X142457298Y-49106744D01*
X142478447Y-49000421D01*
X142602903Y-48699958D01*
X142783585Y-48429549D01*
X143013549Y-48199585D01*
X143283958Y-48018903D01*
X143584421Y-47894447D01*
X143690744Y-47873298D01*
X143903389Y-47831000D01*
X144228611Y-47831000D01*
X144441256Y-47873298D01*
X144441256Y-47873298D01*
G37*
M02*
